<svg width="100px" height="100px" xmlns="http://www.w3.org/2000/svg" viewBox="0 0 317.11 302.49"><g id="Layer_2" data-name="Layer 2"><g id="Layer_3" data-name="Layer 3"><path d="M130.85,211.43l-13.1,12.25c-1,1-2.07,1.95-3.12,2.91-.57.53-1.55,1.61-2.42,1.54s-1.66-1.31-2.25-1.81a13,13,0,0,0-3.13-2c-4.29-1.89-9-1.54-13.52-1.46-4,.07-9-.13-11.47-3.84-1.66-2.5-2.67-5.5-3.88-8.23l-4-9.19a2.3,2.3,0,0,0-3.12-.82,2.33,2.33,0,0,0-.82,3.12q1.91,4.35,3.82,8.68a79.78,79.78,0,0,0,3.73,8.14c2.74,4.67,7.62,6.36,12.79,6.66,4.7.27,9.88-.9,14.37,1,2.33,1,3.67,3.44,6.11,4.13,2.88.81,5.29-1,7.28-2.84q8-7.47,16-15C136.23,212.65,133,209.42,130.85,211.43Z"/><path d="M138.76,203.64a2.11,2.11,0,0,0-2.33.09c-2.92-4.08-4.79-8.87-7.84-12.87-3.57-4.69-8.33-8-14.42-7.92-2.7.06-5.83.8-8.28-.67-2-1.21-3.43-3.23-5.28-4.65a9,9,0,0,0-7.79-1.68,43.92,43.92,0,0,0-8.71,3.25,59.76,59.76,0,0,0-16.83,11.72,2,2,0,0,0-.67,1.57l-.1,0a7,7,0,0,1-1.13-1c-1.72-1.87-5.12.63-3.59,2.77.12.16.25.3.38.45h0a1.59,1.59,0,0,1,.13.13,6.21,6.21,0,0,0,.87.84,2.16,2.16,0,0,0,2.2,2.3h3.51A2.32,2.32,0,0,0,71,196.54a40.22,40.22,0,0,1,4.79-.85A15.83,15.83,0,0,1,84,197.16a77.81,77.81,0,0,1,6.64,4.18c.39.25.8.49,1.21.71a2.32,2.32,0,0,0,1.67,2.13,2.36,2.36,0,0,0,1.4-.09s0,.1,0,.15c.06.24.12.48.16.72,0,.06,0,.26.06.35a10.69,10.69,0,0,1,.06,1.13c0,.24,0,.48,0,.73,0,.06,0,.34,0,.46a10.83,10.83,0,0,1-.72,2.48,2.27,2.27,0,0,0,1.32,2.7,2.29,2.29,0,0,0,2.85-.94q.4-.66.84-1.29l.23-.31a2.36,2.36,0,0,1,.16-.22l.12-.16.25-.3a22.55,22.55,0,0,1,2.19-2.29c.38-.35.77-.68,1.17-1h0l.3-.22.63-.44a23.33,23.33,0,0,1,2.83-1.63,2.21,2.21,0,0,0,1.12-2c2.2.23,4.4,1.38,6.37,2.16l9.22,3.68c3.58,1.43,7.87,2.84,11.46,1.76,1.38.77,3-.42,3.21-1.88a8,8,0,0,0,.86-1A2.29,2.29,0,0,0,138.76,203.64Zm-7.83,1.67a36.41,36.41,0,0,1-6.69-2.28l-8.71-3.47c-2.57-1-5.24-2.26-8.07-2.19s-5.16,1.7-7.9,2.13c-2.12.33-4.13-.6-5.91-1.65-2.06-1.22-4-2.7-6-3.91a20.56,20.56,0,0,0-7.4-2.63,21.81,21.81,0,0,0-6.8.15,56.11,56.11,0,0,1,10.64-7.18,53.42,53.42,0,0,1,7.56-3.21,9.45,9.45,0,0,1,4.13-.85,5.1,5.1,0,0,1,2.43,1.27c1.8,1.5,3.25,3.36,5.25,4.62,2.41,1.53,5.25,1.69,8,1.54,2.59-.14,5.17-.4,7.59.76a16.48,16.48,0,0,1,5.69,4.87c3,3.78,4.83,8.21,7.42,12.2C131.72,205.44,131.3,205.38,130.93,205.31Z"/><path d="M88,169.85a10.56,10.56,0,0,1,0-9.21c1.62-3.31,4.8-5,8.07-6.33,3.61-1.49,7.1-2.93,10.21-5.35a30.65,30.65,0,0,0,7.15-7.91,29.53,29.53,0,0,0,4.22-11.58,2.37,2.37,0,0,0-1.6-2.81,2.31,2.31,0,0,0-2.81,1.6,26,26,0,0,1-11.1,18.1c-3.35,2.23-7.21,3.3-10.79,5.1a15.85,15.85,0,0,0-7.94,8.34,15.16,15.16,0,0,0,.64,12.35C85.39,174.77,89.33,172.47,88,169.85Z"/><path d="M117.37,152.48l.18.22c0,.1,0,.2,0,.3a2.29,2.29,0,0,0,.59,1c.73.85,1.5,1.67,2.29,2.47a2.47,2.47,0,0,0,.46.78c2.34,2.45,5.38,4.26,7.47,6.93,1.85,2.37,2.06,5.94-.63,7.84a2.28,2.28,0,1,0,2.31,3.94,9.83,9.83,0,0,0,3.07-12.82c-1.55-2.9-4.21-4.86-6.68-7l1.32-.68c2.25-1.17.68-5.09-1.76-4.18a4.54,4.54,0,0,1-1.71.3l-.57-.2a11.89,11.89,0,0,1-1.27-.68,3.06,3.06,0,0,0-.37-.59,3.48,3.48,0,0,0-3.38-1A2.3,2.3,0,0,0,117.37,152.48Z"/><path d="M103.26,162.33a17,17,0,0,0-5-2.74,6.56,6.56,0,0,0-5.9.27,6.9,6.9,0,0,0-2.94,5.34c-.17,2.34.83,4.56,1.77,6.64a2.29,2.29,0,0,0,3.12.82l.16-.12c1.09.15,2.18.28,3.28.33a16.18,16.18,0,0,0,3,0c.57.3,1.14.6,1.73.86,1.45.65,3.16.58,4-1,1-1.7.63-4.21-.06-5.94A10.81,10.81,0,0,0,103.26,162.33Z"/><path d="M123.78,167l-.27,0a2.5,2.5,0,0,0-1-1.46,12.82,12.82,0,0,0-3-1.53,2,2,0,0,0-1.4.07,4.55,4.55,0,0,0-1.49-1,3.86,3.86,0,0,0-1.88-.21,6,6,0,0,0-1.33.11,5.16,5.16,0,0,0-3.93,4.13,5.13,5.13,0,0,0-1,4.66c.78,2.8,3.73,4,6.4,4,1.32,0,2.62-.27,3.94-.35.3,0,.61,0,.92,0l.45,0,.22,0a6.2,6.2,0,0,0,2.74.17,4.51,4.51,0,0,0,3-2.54,8.72,8.72,0,0,0,.76-2.33,5.12,5.12,0,0,0,.27-1.79A2.3,2.3,0,0,0,123.78,167Z"/><path d="M132,144.38v0l0-.12,0,.08Z"/><path d="M128.44,148.23a2.32,2.32,0,0,0,2.81-1.6,17,17,0,0,1,.71-2.23l-.05.09.06-.13c.07-.16.06-.15,0-.08v0l.26-.54c.18-.37.38-.72.59-1.07s.4-.65.62-1l.31-.43.15-.18a16.32,16.32,0,0,1,1.68-1.75,2.3,2.3,0,0,0,0-3.23,2.34,2.34,0,0,0-3.23,0,18.46,18.46,0,0,0-5.55,9.35A2.32,2.32,0,0,0,128.44,148.23Z"/><path d="M195.19,145.94a2.35,2.35,0,0,0-3.23,0,15.94,15.94,0,0,1-1.29,1,3.82,3.82,0,0,0,0-.58,2.31,2.31,0,0,0-3.89-1.61,11.77,11.77,0,0,1-3.7,2.18l0-.07a2.29,2.29,0,0,0-3.23-3.23,5.92,5.92,0,0,1-3.19,1.36l.24-1a2.3,2.3,0,0,0-3.81-2.22l-.1.07a2.3,2.3,0,0,0-3.32-2.64,11.14,11.14,0,0,1-4.68,1.5c0-.12.05-.23.07-.35.4-2.14-2.11-3.95-3.81-2.23a7.47,7.47,0,0,1-5.33,1.81l.44-2.21a2.3,2.3,0,0,0-3.81-2.22l-5.63,4.38-3.41-.38A2.81,2.81,0,0,0,144,139l.39-.55a14.07,14.07,0,0,1,2-2,13.07,13.07,0,0,1,2.63-1.53,2.26,2.26,0,0,0,1.05-1.37,2.27,2.27,0,0,0-1.59-2.8l-.61-.09a2.24,2.24,0,0,0-1.15.32,15.47,15.47,0,0,0-6.66,5.72,2.31,2.31,0,0,0,.64,3,2.16,2.16,0,0,0-.59,2.86c2.07,3.68,4.58,7.21,8.18,9.54a28.23,28.23,0,0,0,6.38,2.82c2.25.76,4.5,1.52,6.8,2.1a29.84,29.84,0,0,0,7.15,1c2.44,0,4.83-.53,7.24-.78,4-.42,8.76,1,12.25-1.66l.11-.1a2.47,2.47,0,0,0,2.2-2.55l4.75-3.74A2.31,2.31,0,0,0,195.19,145.94ZM154,147.54a6.93,6.93,0,0,0,0,2.36,24.44,24.44,0,0,1-2.76-1.37,15.53,15.53,0,0,1-4.44-4.06l8.13.91A5.08,5.08,0,0,0,154,147.54Zm27.36,5.09a41,41,0,0,0-5.76.05c-2.14.24-4.27.68-6.44.74a18.82,18.82,0,0,1-2-.06,3.58,3.58,0,0,0,1-1.08,3.45,3.45,0,0,0,.28-2.75,31.13,31.13,0,0,0,9.32,2.28,2.06,2.06,0,0,0,1.32.44c.43,0,.84-.05,1.26-.08a18.32,18.32,0,0,1,2.2.47C182.18,152.65,181.78,152.64,181.37,152.63Z"/><path d="M314.47,176.45c-.77-.5-1.66-.79-2.48-1.22s-.91-.57-.59-1.39A28.49,28.49,0,0,1,313,171a9.29,9.29,0,0,0,1.18-3.77,9,9,0,0,0-2.07-6.34,8.52,8.52,0,0,0-2.65-2.09c-1-.5-2.29-.84-3-1.75-1.18-1.57-.6-4.26-.42-6.05a23.35,23.35,0,0,0-.2-6.78c-1.49-7.85-7.59-14.73-15-17.62-.3-.15-.59-.32-.9-.46,1-2.53,2.11-5,3-7.6a28.7,28.7,0,0,0,.95-16.56,13.55,13.55,0,0,0-1.59-6.56A17.36,17.36,0,0,0,287,89.77a59.23,59.23,0,0,0-13.92-10.48,5.39,5.39,0,0,1-.33-1.47c-.13-2.56,1.23-5,2.12-7.32s1.52-5.15.65-7.69c-.93-2.71-3.08-4.59-5.41-6.12-5.67-3.71-11.63-7-17.43-10.51-1.41-.85-2.83-1.68-4.23-2.54a9.72,9.72,0,0,1-3-2.41c-.76-1.07-.57-2.37-.68-3.61a8,8,0,0,0-1.08-3.68c-2.89-4.59-9.6-3.7-13.93-2.12-3.53,1.28-7,2.89-10.43,4.35L210.27,40a7.66,7.66,0,0,1,3.39-7c1.8-1.19,3.5-1,5.56-.81,2.54.21,5.12-.47,6.3-2.94a18.54,18.54,0,0,0,.89-3.18c.28-1,.76-1.22,1.81-1.38,2.61-.41,5.06-.59,7.54-1.62,4.74-2,8.33-5.87,8.87-11.1a10.32,10.32,0,0,0-3.87-9.31c-.17-.22-.32-.44-.51-.66A6.64,6.64,0,0,0,233.06.44c-4,.2-7.75,2-11.31,3.79-.93.47-1.87.88-2.81,1.28a8.2,8.2,0,0,0-4.36.51c-1.35.56-2.64,1.17-3.91,1.8-1.86.32-3.72.59-5.58.87a52,52,0,0,0-15.34,4.57c-8.77,4.3-16,11.21-22.39,18.52-3.34,3.85-6.47,7.86-9.57,11.89-1.5,1.95-3,3.91-4.49,5.86-.49.64-1.09,1.73-2,1.75-1.14,0-2.71-1.12-3.69-1.64a47.62,47.62,0,0,1-4.27-2.55c-.17-.74-.44-1.5-.62-2.13a44.19,44.19,0,0,0-2.58-6.76,43.48,43.48,0,0,0-7.88-11.49,37.45,37.45,0,0,0-4.52-4.26A42.34,42.34,0,0,0,109.05,6.3c-.53-.23-1-.44-1.58-.65a5.35,5.35,0,0,0-1-.69A20.17,20.17,0,0,0,92.38,2.75,43.34,43.34,0,0,0,79,4.87a60.56,60.56,0,0,0-15.2,7.27c-4,2.75-8,6.27-10,10.79a17.76,17.76,0,0,0-1.61,6.47,6.83,6.83,0,0,1-1.07.86,31.23,31.23,0,0,0-3.35-.79A46.3,46.3,0,0,0,37.55,29a18.06,18.06,0,0,0-5.58.11,30.54,30.54,0,0,0-7.19,2.45,48,48,0,0,0-14,7.61A30,30,0,0,0,3.1,46.89l-.21.33a13.92,13.92,0,0,0-2.1,4.4c-1.33,3.94-1.3,8.32,2.64,10.62,5.08,3,11.83,3.31,17.45,2.05a25.26,25.26,0,0,0,8-3.28c1.16-.73,2.2-1.65,3.39-2.33a3.05,3.05,0,0,1,1.22-.51c0,.07,0,.32,0,.46-.74,2.33-3.26,4-4.78,5.84C26.91,66.62,25.57,69.09,26,72a7.9,7.9,0,0,0,5.85,6.16A10.46,10.46,0,0,0,41,76.07a19.32,19.32,0,0,0,3.64-3.7A6.52,6.52,0,0,1,45.79,71a6.22,6.22,0,0,0,.85.77A7.35,7.35,0,0,0,52,73.41a9.29,9.29,0,0,0,.32,7.23A6.26,6.26,0,0,0,61.68,83c3.32-2.45,3.46-6.23,3.16-9.93A4.34,4.34,0,0,0,70.91,73H71c1.84.17,6.86-.77,5.32,2.63A4.18,4.18,0,0,1,75.24,77l-.1.07c-.12.09-.21.18-.32.27a13.42,13.42,0,0,1-2.36,1.27,30.41,30.41,0,0,0-5.13,2.58c-3.2,2.26-5.47,5.44-7.62,8.65q-4,5.94-7.9,11.9c-2.57,3.86-5.1,7.76-7.72,11.59a6.14,6.14,0,0,1-3.24,2.83,8.51,8.51,0,0,1-3.69,0c-3.1-.52-6.14-1.64-9.31-1.65a9.54,9.54,0,0,0-8.16,4.33c-1.73,2.55-2.24,5.9-4.4,8.15s-5,3.48-6.94,5.86a7.87,7.87,0,0,0-1.84,4.4c-.17,2.16,1,4,1.12,6.16.29,4.34-2.4,8.45-2.85,12.75-.39,3.78,1,7.75,4.57,9.49,3.19,1.54,6.9.87,8.73-2.34.83-1.46,1.05-3.1,2.51-4.09A12.59,12.59,0,0,0,24.38,156c1.58-2.41,1.67-5.34,2.63-8,.06-.17.13-.33.2-.48.27.7.5,1.43.81,2.07a6.28,6.28,0,0,0,2.84,3.13c2.4,1.22,6,.88,6.82-2.16a2.53,2.53,0,0,0,0-1.13,2.27,2.27,0,0,1-.16,2.39,18.89,18.89,0,0,1-6.62,6.82c-2.71,1.76-5.93,2.57-8.56,4.44a10.38,10.38,0,0,0-4.43,8.45,10.23,10.23,0,0,0,12.56,9.8c3-.71,5.38-2.77,7.52-4.85a35.41,35.41,0,0,1,4.55-4.1,17.63,17.63,0,0,1-1,2.39A21.47,21.47,0,0,0,39.69,181a20.33,20.33,0,0,0,2.37,12.21c1,1.88,1.82,3.46,1.28,5.61a54.66,54.66,0,0,0-1.59,6.54c-.51,4.09.27,8.42,3,11.59a10.75,10.75,0,0,0,9.8,3.63q3.55,12.84,8.13,25.38c.9,2.47,1.84,4.94,2.81,7.39.85,2.15,1.69,4.39,3.47,6s4.35,2.34,6.63,3.19,4.75,1.71,7.19,2.37a39.19,39.19,0,0,0,7.7,1.34,54.24,54.24,0,0,0,2.41,15.87,37.68,37.68,0,0,1,1.78,8.65,66.84,66.84,0,0,1-.38,9.49,2.31,2.31,0,0,0,2.28,2.29,2.34,2.34,0,0,0,2.29-2.29,69.23,69.23,0,0,0,.39-9.22,39,39,0,0,0-1.65-9.09,54.34,54.34,0,0,1-2.54-15.72A29.13,29.13,0,0,0,98,265.8c4.71-.87,9.12-2.87,13.47-4.79a92.32,92.32,0,0,1,14-5,141.77,141.77,0,0,0,15-4.43c9.83-3.75,19.36-8.43,28.92-12.81,7.18-3.29,14.54-7.12,19.35-13.61.33-.45.65-.91.94-1.38a10.2,10.2,0,0,0,4.68,6.31,1.19,1.19,0,0,0,.29.48l.44.44a.88.88,0,0,0,.37.24,1,1,0,0,0,.44.1.92.92,0,0,0,.44-.1.82.82,0,0,0,.25-.16c.23.07.45.15.69.21a8.61,8.61,0,0,0,1.08.17q-3,10.91-5.34,21.95c-.62,2.86,3.79,4.09,4.4,1.21q2.55-11.81,5.75-23.46a3.05,3.05,0,0,0,.08-.5l.82-.34a2.47,2.47,0,0,1,2.81.06,17.37,17.37,0,0,1,2.79,2.83c7.29,8.25,13.6,17.86,24.32,22a20.39,20.39,0,0,0,14.45.39,17.2,17.2,0,0,0,9.93-9.16,15.88,15.88,0,0,0,1-6.56c0-1.37-.45-4,1.07-4.73,1.07-.53,2.42-.48,3.54-1a6.7,6.7,0,0,0,2.28-1.66,9.6,9.6,0,0,0,2.12-6c.22-4.56-1.8-9-3.13-13.27-1.41-4.56-2.84-9.4-2.36-14.23a11.85,11.85,0,0,1,6.65-9.63,14.44,14.44,0,0,1,2.19-.82,36,36,0,0,0,5.42-.8c1.67-.05,3.34,0,4.94.12,4.84.31,9.63,1.13,14.48,1.3a63.17,63.17,0,0,0,8.91-.34c.83.14,1.67.26,2.52.33a6.3,6.3,0,0,0,5.39-2.66,8,8,0,0,0,3.59-4.47A5.25,5.25,0,0,0,314.47,176.45ZM188.65,209c-.17,4.44-.57,8.72-3,12.55a26,26,0,0,1-7.77,7.48c-7.33,4.86-15.82,8.05-23.79,11.67-4.59,2.09-9.17,4.24-13.87,6.08a118.39,118.39,0,0,1-14.14,4.35,94.91,94.91,0,0,0-14,4.6c-4.19,1.8-8.31,3.83-12.73,5a27.53,27.53,0,0,1-13.82.05,70,70,0,0,1-7.22-2.22c-2-.72-4.67-1.3-6.32-2.73s-2.19-3.94-2.91-5.8q-1.38-3.57-2.67-7.16-2.55-7.06-4.77-14.24a276.79,276.79,0,0,1-7.41-28.61c-.25-1.28-.47-2.57-.68-3.87A135.83,135.83,0,0,1,54.35,182a109.31,109.31,0,0,1,2.82-16.08c.13-.49.27-1,.42-1.45.11-.18.21-.36.33-.54,2.31-3.51,5.42-6.39,8.4-9.33.92-.91,1.83-1.84,2.72-2.8l0,0a14.86,14.86,0,0,0,5-6.48l.09-.15a2.33,2.33,0,0,0,.33-.92,21.87,21.87,0,0,0,.77-2.94c.15-.86.26-1.72.34-2.59,1.9,1.34,4.59,1.87,6.73,2.31a36.2,36.2,0,0,0,9.23.71A53,53,0,0,0,109,137.31a2.37,2.37,0,0,0,1.6-2.81,2.12,2.12,0,0,0-.26-.55,2.4,2.4,0,0,0-.23-2.7,2.36,2.36,0,0,0-2.35-3.73,3.48,3.48,0,0,1-3-.93,2.32,2.32,0,0,0-3.23,0l-.18.21a2.09,2.09,0,0,0-1.45,1.8l-.27,0A2.19,2.19,0,0,0,96.85,126a1.27,1.27,0,0,1-1.34-.31,2.37,2.37,0,0,0-3.94,1.6,3.45,3.45,0,0,1-2.09-.71c-1-.83-2.92-1-3.58.46v0h0c-.23-.09-.51-.09-.75-.2-1.16-.53-1.9-1.37-3.31-1a2.81,2.81,0,0,0-1.45,1h0a2.14,2.14,0,0,0-3.6.72,2.72,2.72,0,0,0-.38.11c.07-.42.15-.83.24-1.25,0-.17.09-.34.13-.51a37.26,37.26,0,0,1,6.75-11.92,2,2,0,0,0,3,.78,15.29,15.29,0,0,1,3.67-1.76c.77-.16,1.55-.32,2.33-.45s1.62-.24,2.44-.34a16,16,0,0,1,12,5,2,2,0,0,0,3,.12H110a2.35,2.35,0,0,0,1.62-.67c.14-.14.28-.3.42-.46a2.2,2.2,0,0,0,1.43-.64,2.59,2.59,0,0,0,.67-1.62l.26-3.49a2.29,2.29,0,0,0-2.28-2.28,2.87,2.87,0,0,0-1,.24c-2.12-1.55-5.63-1.28-8-1.29a67.77,67.77,0,0,0-8.31.49,20.3,20.3,0,0,0-5.8.9c-.27,0-.52.12-.79.18,1.47-1.52,3-3,4.46-4.46C100.1,97.1,107.47,89.71,115,82.51a95.89,95.89,0,0,1,10.49-5.83,10.76,10.76,0,0,0,2.44-1.11l1.61-.7a84.41,84.41,0,0,1,8-2.83,39,39,0,0,0,6.11,0A71.94,71.94,0,0,0,157,68.9a38.5,38.5,0,0,1,8.85.65,17.75,17.75,0,0,1,1.81.46,8.65,8.65,0,0,0,2.1,1.4c1.22.59,2.51,1,3.76,1.47a19.62,19.62,0,0,1,3.13,2.88c3,3.44,5.16,7.64,7.29,11.62a145.75,145.75,0,0,1,6.25,13.19,170.33,170.33,0,0,1,8.63,28.31c1.44,6.49,3.2,13.2,3.86,19.93a2.82,2.82,0,0,0-.53,1.32q-1.25,12.12-3.71,24.06c-1.18,3.06-2.46,6.07-3.66,9.07a107,107,0,0,0-4.31,12.4A61.67,61.67,0,0,0,188.65,209ZM88.33,135.73a1.71,1.71,0,0,0,.4.78,1.9,1.9,0,0,0,.64.59l.12.05a29.67,29.67,0,0,1-4.62-.35,34.32,34.32,0,0,1-3.87-.87l-1-.28a49.17,49.17,0,0,1,8.24-1.9,3.89,3.89,0,0,0-.12.89A2.88,2.88,0,0,0,88.33,135.73Zm9.87-2.36a47.66,47.66,0,0,1,6.27.84,54,54,0,0,1-6.65,2,6.21,6.21,0,0,0,.29-.63A3.59,3.59,0,0,0,98.2,133.37ZM216,207a43,43,0,0,1-9.79,11,38.5,38.5,0,0,1-5.45,4.05,4.41,4.41,0,0,0,.57-1.15,1.62,1.62,0,0,0,.09-.38,4.53,4.53,0,0,0,.1-1,5.27,5.27,0,0,0-.13-1,4.54,4.54,0,0,0-.34-.89,1.86,1.86,0,0,0-.19-.34,4.5,4.5,0,0,0-.62-.75,1.71,1.71,0,0,0-.74-.47,1.66,1.66,0,0,0-.88-.2,1.7,1.7,0,0,0-.88.2,1.73,1.73,0,0,0-.73.47,2.28,2.28,0,0,0-.67,1.61,2.4,2.4,0,0,0,.52,1.45,2.34,2.34,0,0,0-.39,1.26,1.55,1.55,0,0,0,0,.31,1.93,1.93,0,0,0-1.48.25l-.33-.2a7.61,7.61,0,0,1-3-1.67,27.87,27.87,0,0,0,1.38-6.78c.24-2.83.33-5.63.57-8.42a2.09,2.09,0,0,0,1.86-1.08,32.16,32.16,0,0,1,10.76-11.23,7.12,7.12,0,0,0,8.89,1.79,2.21,2.21,0,0,0,1.13-2c0-.36-.07-.75-.11-1.16a4.63,4.63,0,0,1,2,2.61,7.67,7.67,0,0,0,1.34,2.45A24.5,24.5,0,0,1,216,207Z"/><path d="M142.87,118.69c.79,1.79,3.13,2.29,5.08,1.71a13.06,13.06,0,0,0,1.43-.54,15.14,15.14,0,0,0,2.4-.54,32,32,0,0,1,7.37-1.65,40.23,40.23,0,0,1,15,2.26,59.18,59.18,0,0,1,7.74,2.93c1.82.88,3.69,1.94,4,4.08a2.31,2.31,0,0,0,2.81,1.6,2.33,2.33,0,0,0,1.59-2.81,6.12,6.12,0,0,0-.2-.87,14.41,14.41,0,0,0-6.1-8.56c-3.71-2.43-8.5-3-12.75-4-4.72-1-9.46-2-14.24-2.7-2.1-.3-5.77-1.15-8.15-.27a10.33,10.33,0,0,0-3.33.17,5,5,0,0,0-4,4.34,4.93,4.93,0,0,0,.4,2.32A2.44,2.44,0,0,0,142.87,118.69Z"/><path d="M180.33,129.83a2.29,2.29,0,0,0-1.22,4.41c.37.1.73.26,1.1.37l.2.07h0l.32.14.58.31a13.74,13.74,0,0,1,1.22.75l.32.23.51.43a14,14,0,0,1,1,1c.16.17.32.35.47.54l.08.1s0,0,0,0a1.09,1.09,0,0,0,.13.17l-.08-.1h0a14,14,0,0,1,1.46,2.55,2.24,2.24,0,0,0,1.36,1,2.31,2.31,0,0,0,1.76-.23,2.27,2.27,0,0,0,1-1.36,2.68,2.68,0,0,0-.23-1.76A16,16,0,0,0,180.33,129.83Z"/><path d="M180.21,134.61c-.09,0-.08,0,.24.09h0Z"/><path d="M185,138.21l.09.11,0-.07Z"/><path d="M100.47,116.43a2.29,2.29,0,0,0-1.21,4.41c.41.11.8.24,1.2.39l.16.07.56.26a15.26,15.26,0,0,1,2.14,1.33l0,0,.11.09.47.42c.29.27.58.55.85.84l.41.48.16.18c.24.34.48.68.7,1a2.28,2.28,0,1,0,3.94-2.31A16.61,16.61,0,0,0,100.47,116.43Z"/><path d="M208.8,196.76a2.35,2.35,0,0,0-3.12-.82,2.29,2.29,0,0,0-.82,3.12L207,202c-.08,0-.15-.06-.24-.08a8.16,8.16,0,0,0-3.57.06l-2.45-.83a2.27,2.27,0,0,0-2.69,1.32,2.3,2.3,0,0,0,.94,2.85l.25.17c.2.15.17.12-.09-.08a2.17,2.17,0,0,1,.46.4l.08.07a4.49,4.49,0,0,0,2.48,3.37c.23.13.47.25.69.39h0v0h0v0h0a.3.3,0,0,1,0,.09c0-.06,0,0,0,.09a.19.19,0,0,1,0-.07s0,0,0-.06l0,.15s0,0,0,.07a2.53,2.53,0,0,0-.13.22.2.2,0,0,0-.05.05c-.06,0-.14.13-.19.18l-.05,0-.17.09-.4.12-.17,0-.44,0a5.86,5.86,0,0,1-.94-.05l-.22,0-.62-.13c-.38-.08-.75-.18-1.12-.27a2.28,2.28,0,1,0-1.21,4.4c2.91.75,6.45,1.27,8.76-1.15A6.16,6.16,0,0,0,207,211.6a2.47,2.47,0,0,0,2.09-1.11s0-.05,0-.08l.21-.24c.2-.23.4-.46.62-.67a8.24,8.24,0,0,1,.62-.56l.2-.18.19-.13.05,0a3.64,3.64,0,0,0,2.62-1.76c1.16-2.1-.36-4-1.56-5.58Z"/><path d="M202.9,209.65a.64.64,0,0,1,0,.07l0-.07Z"/></g></g></svg>