<svg width="100px" height="100px" xmlns="http://www.w3.org/2000/svg" viewBox="0 0 286.49 301"><g id="Layer_2" data-name="Layer 2"><g id="Layer_3" data-name="Layer 3"><path d="M73.37,232.83a2.74,2.74,0,0,1-.56-.06A2.88,2.88,0,0,1,71,231.4a2.19,2.19,0,0,1-.25-1.81l.13-.41c.61-1.86,1.63-5,.09-6.44a2.74,2.74,0,0,1-.38-3.61c0-.1-.09-.25-.1-.28a6,6,0,0,0-.54-1.07l-2.54-4.38a2.64,2.64,0,0,1,.42-3.4,12.92,12.92,0,0,0-2-3.25c-.23-.3-.45-.6-.66-.89l-4.45-6.24a2.38,2.38,0,0,1-.26-2.57A2.94,2.94,0,0,1,63,195.52a2.76,2.76,0,0,1,1.66.55,26.22,26.22,0,0,1,6,6.27,2.48,2.48,0,0,1,.3,2.37l.21.33c.16.24.32.48.47.72a10.37,10.37,0,0,1,1.84,5.3,3.54,3.54,0,0,1-.31,1.54,37.31,37.31,0,0,1,2.16,4,6.16,6.16,0,0,1,.5,3.81c1.52,2.54,1.58,5.92.16,10.32a2.79,2.79,0,0,1-2.61,2.14Z"/><path d="M75.69,220.39a6.08,6.08,0,0,0-.48-3.78,36.37,36.37,0,0,0-2.19-4,3.21,3.21,0,0,0,.33-1.54,10.45,10.45,0,0,0-1.82-5.24c-.23-.37-.48-.73-.72-1.1a2.34,2.34,0,0,0-.26-2.32,26.43,26.43,0,0,0-5.94-6.23c-2.23-1.67-5.6.88-3.81,3.38l4.45,6.24A18.17,18.17,0,0,1,67.94,210a2.51,2.51,0,0,0-.46,3.29l2.4,4.15a7.29,7.29,0,0,1,.69,1.33s.11.31.12.34a2.61,2.61,0,0,0,.34,3.5c1.71,1.64.4,5.12-.2,7a2.6,2.6,0,0,0,2,3,2.64,2.64,0,0,0,3-2C77,227.26,77.54,223.43,75.69,220.39Z"/><polygon points="31.57 30.43 31.57 30.41 31.59 30.39 31.7 30.47 31.8 30.48 31.8 30.55 31.73 30.58 31.57 30.43"/><polygon points="31.68 30.48 31.68 30.47 31.68 30.48 31.68 30.48"/><path d="M158.79,301c-1.6,0-3.23-.06-4.85-.16-18.78-1.25-36-9.64-50.33-17.7a2.19,2.19,0,0,1-.36,0,2.6,2.6,0,0,1-1.49-.49c-7.86-5.5-13.91-14.12-18-25.62-.8-2.26-1.53-4.67-2.22-7.37a4.76,4.76,0,0,1-.55.2,7.17,7.17,0,0,1-2.08.3A9.86,9.86,0,0,1,74.34,249a18.47,18.47,0,0,1-8.2-9.33,20.4,20.4,0,0,1-1-11.2l.1-.6a10.85,10.85,0,0,0,.11-4.35,4.16,4.16,0,0,0-2.08-2.29,8.66,8.66,0,0,1-1.42-1.07c-2.46-2.49-2.6-5.93-2.73-9.26l0-.71a12.65,12.65,0,0,0-1-5,16.69,16.69,0,0,0-3.19-4.2c-.26-.28-.53-.55-.79-.82A34.66,34.66,0,0,1,50,195.23c0,.46,0,.92-.07,1.43a43,43,0,0,0,.29,5.41c.1,1,.22,2,.35,3a59.92,59.92,0,0,1,.62,7.61c0,4.84-1.16,11.47-6.43,15.52a1.94,1.94,0,0,1-1.19.38,2.2,2.2,0,0,1-1.85-1,27.9,27.9,0,0,1-4-13.38c-.39-7.3,1.54-14.42,3.41-21.3.41-1.51.82-3,1.21-4.54,0-.13.08-.29.14-.49a4.86,4.86,0,0,0,.37-2.58,14.76,14.76,0,0,1-3.35,1.15l-.45.45L39,187a13.77,13.77,0,0,1-4.29,3.36,6.15,6.15,0,0,1-2.22.49,3.55,3.55,0,0,1-.67-.06A4.07,4.07,0,0,1,30,189.61,6.69,6.69,0,0,0,26.66,192l-.24.55c-.13.3-.26.6-.39.88a3.6,3.6,0,0,1-.63.94,7.33,7.33,0,0,0,.07,5,2,2,0,0,1-.23,1.87,2.3,2.3,0,0,1-1.87,1,1.88,1.88,0,0,1-.92-.23c-4.48-2.42-6.79-7.93-5.61-13.4a15.76,15.76,0,0,1,4.08-7.43,17.08,17.08,0,0,1,4-3.64,87.8,87.8,0,0,0,10.3-15.21c-.61.25-1.18.46-1.73.63a19.83,19.83,0,0,1-6,.83c-1.47,0-2.94-.11-4.31-.23-.65-.06-1.35-.11-2-.11a7.11,7.11,0,0,0-2.74.45,7.63,7.63,0,0,0-2.76,2.42l-.3.37c-2.27,2.72-4.5,4-7,4a8.12,8.12,0,0,1-1.29-.11,6.94,6.94,0,0,1-5.65-5.47,6.85,6.85,0,0,1,2.77-7.27,15.36,15.36,0,0,1,3.21-1.56c.35-.14.71-.28,1-.43,1.5-.63,2.86-1.26,4.17-1.92a72.11,72.11,0,0,0,7.45-4.37,71.83,71.83,0,0,0,13.74-11.91c1-1.14,2-2.32,2.94-3.52l.61-.74a9.84,9.84,0,0,0,1.84-2.77.89.89,0,0,0,0-.82,1.55,1.55,0,0,0-1.18-.48h-.14a4.21,4.21,0,0,0-2.49,1.2,24.35,24.35,0,0,0-1.86,1.8c-.4.42-.82.85-1.25,1.26a41.38,41.38,0,0,1-3.7,3.1,38.39,38.39,0,0,1-8.17,4.53,11.27,11.27,0,0,1-4.08,1,3.79,3.79,0,0,1-3.77-2.38c-1.06-2.44.26-5.43,1.94-7.18,2.82-3,6.52-4.91,10.1-6.8,1.87-1,3.81-2,5.58-3.17,2.59-1.69,7-5.22,8-10.08a34.87,34.87,0,0,0-7.36,4.53,4,4,0,0,1-.85.72,35.1,35.1,0,0,0-5.21,5.57,2,2,0,0,1-1.6.75A2.14,2.14,0,0,1,21,122.65c-1.42-5.16.92-9.62,3.14-12.45,4.37-5.58,11.32-8.87,17.45-11.77l1-.48c4.79-2.28,9.74-4.63,13.85-8-1.2-.05-2.41-.07-3.57-.07h-1A90.83,90.83,0,0,0,15.76,97.8l-.72.33a33.09,33.09,0,0,1-7.22,2.59,7.63,7.63,0,0,1-2.1.31,5,5,0,0,1-2.33-.53H3.27A3.8,3.8,0,0,1,.42,98.4,4.86,4.86,0,0,1,.63,94a9.53,9.53,0,0,1,.91-2.64,19.81,19.81,0,0,1,4.87-5.91,20.8,20.8,0,0,1,10.18-4.61c7.08-3.2,15.13-3.57,22.92-3.93,2.36-.1,4.8-.21,7.16-.41a153.41,153.41,0,0,0,19.54-3l2.09-.43c.87-.17,1.75-.35,2.62-.54.34-.6.61-1.1.84-1.58s.53-1.2.84-2l.1-.34.08-.24c.1-.34.19-.67.27-1v-.08l-1.44-4-1.05-2.92c-.73-2-1.48-4.14-2.25-6.19a19.51,19.51,0,0,0-2.13-4.39c-.5-.59-1-1.16-1.55-1.7l-.06,0a6,6,0,0,0-.47-.38c-2.57-1.81-5.87-2.24-9.06-2.65A36.46,36.46,0,0,1,49.83,44a28.19,28.19,0,0,1-7.53-3.35,26.67,26.67,0,0,1-4.62-3.61,11.42,11.42,0,0,0,.5,3.56A12.17,12.17,0,0,1,38.71,44c-.08,2.4-1.14,5.55-3.86,6.53a4.8,4.8,0,0,1-1.61.29c-2.12,0-4.19-1.62-5.52-4.32A24.78,24.78,0,0,1,26,41.81a22.16,22.16,0,0,1-5.44,4.9,8.47,8.47,0,0,1-4.4,1.43A5.8,5.8,0,0,1,15,48a6.57,6.57,0,0,1-4.28-3.22A9.57,9.57,0,0,1,11.29,35a11.75,11.75,0,0,1,2.15-2.52l-.22,0c-.54-.07-1.09-.14-1.63-.23l-.69-.1c-3.07-.48-6.54-1-8.79-3.22a5.34,5.34,0,0,1-1.6-4.47,5.44,5.44,0,0,1,2.66-4,7.46,7.46,0,0,1,3.9-1A21.64,21.64,0,0,1,14,21l.41.14a55.67,55.67,0,0,1,5.5,2.3c-.61-1.29-1.13-2.51-1.57-3.72a49.9,49.9,0,0,1-1.95-6.56l-.13-.57c-.41-1.78-.87-3.78-.07-5.53a3.6,3.6,0,0,1,3.42-2.32c2.68,0,5.61,2.26,6.83,3.87a13.25,13.25,0,0,1,1.8,3.3A21,21,0,0,1,30.2,8.36a16.87,16.87,0,0,1,9-7A11.63,11.63,0,0,1,42.5.85a7.82,7.82,0,0,1,7,3.58c2.39,3.94.93,8.5-1.28,11.53a14.78,14.78,0,0,1,3.88.62c2.48.76,6.43,3,5.51,6.7-.82,3.24-5,4.39-7.31,4.95A50.72,50.72,0,0,1,71.77,40.62a54.31,54.31,0,0,1,9.28,12.31,18.2,18.2,0,0,0,5.32,6.42,24.8,24.8,0,0,0,6.4,3l-.13-.83a15.85,15.85,0,0,1-2-5.36,36.21,36.21,0,0,1-.56-9.38,4.87,4.87,0,0,0-1.83-2.63A21.4,21.4,0,0,0,86.33,43a17.18,17.18,0,0,1-2.78-1.8,6.6,6.6,0,0,1-2.44-6.14,7.21,7.21,0,0,1,5.09-5.42,8.09,8.09,0,0,1,2.21-.32c2.87,0,5.71,1.72,8,4.83a17,17,0,0,1,2.7,4.11,45.26,45.26,0,0,1,2.57,7.09c.29,1,.6,2,.92,2.94a22.61,22.61,0,0,0,1.82,4.28c.11-.49.23-.94.36-1.36A20.51,20.51,0,0,1,107.61,46c.35-.52.7-1,1-1.58a7.81,7.81,0,0,0,.45-.78,38.15,38.15,0,0,0-.64-8.58c-.64-1.14-1.42-2.27-2.17-3.37-.41-.6-.82-1.21-1.22-1.82-2.07-3.21-4.25-8-2.89-12.47a1.88,1.88,0,0,1,0-.82C104,7.27,113.19,0,123.16,0a19.58,19.58,0,0,1,4.2.45A10.44,10.44,0,0,1,133.81,4a5.17,5.17,0,0,1,.85,5.33,3.43,3.43,0,0,1-3.34,2.07h-1.73c-3.86,0-7.71.32-9.82,2.65a12.44,12.44,0,0,0,.43,2.61l2.45,3.83L125.51,25a11.13,11.13,0,0,1,4.68-5.45,11.58,11.58,0,0,1,11.11-.12,12.88,12.88,0,0,1,4,3.66,26.22,26.22,0,0,1,2.75,2.74l.32.35.61.66a3.33,3.33,0,0,0,.91.13,9.34,9.34,0,0,0,3.11-.8c.34-.13.66-.26,1-.36a12.06,12.06,0,0,1,3.81-.72,6.52,6.52,0,0,1,2.72.56,5.18,5.18,0,0,1,2.15,1.92,10.06,10.06,0,0,1,2-3,13.88,13.88,0,0,1,6.94-3.79,16.24,16.24,0,0,1,3.5-.37c5.16,0,10,2.28,14.88,4.82a2.28,2.28,0,0,1,1.17,1.64,2,2,0,0,1-.5,1.75A14,14,0,0,1,180.53,33a13.28,13.28,0,0,1-2.52-.24,4.22,4.22,0,0,0,1,6.76,4.54,4.54,0,0,0,2.15.54c1.82,0,3.58-1,5.28-2l1.15-.66a15,15,0,0,1,7.31-2.08,12.67,12.67,0,0,1,2.29.21c6.47,1.17,11.54,6.52,12.05,12.73a2,2,0,0,1-.54,1.57,2.31,2.31,0,0,1-1.7.74,2.19,2.19,0,0,1-.36,0l-.15,0a55,55,0,0,0-8.22-.84c-.53,0-1.06,0-1.55.05a2.59,2.59,0,0,1-.91.16,2.83,2.83,0,0,1-.41,0,11.78,11.78,0,0,0-7.09,3.29c-2,2-2.91,4.44-2.48,6.59a6.52,6.52,0,0,0,3.6,4.34,11,11,0,0,0,5,1.25c6,0,11.46-5,16.24-9.52,1.25-1.16,2.43-2.26,3.55-3.21,2.37-2,4.87-3.88,7.42-5.62l.82-.56a21.66,21.66,0,0,1,5.88-3.22,9.63,9.63,0,0,1,2.66-.41,5,5,0,0,1,3.7,1.4c2.13,2.16,1.25,5.34-.48,7.38-2.35,2.78-5.68,4.45-8.91,6.07-.6.3-1.21.6-1.79.91-3,1.54-6.62,3.43-7.57,6.87a6,6,0,0,1,.72,1.7,1.84,1.84,0,0,0,.55,1,8.76,8.76,0,0,0,1.52-.34l.2-.06a14,14,0,0,0,8.3-6.51c.14-.26.26-.52.38-.76a3.38,3.38,0,0,1,2.09-2.17,14.28,14.28,0,0,1,4.3-.64,16.51,16.51,0,0,1,4.92.76,2.31,2.31,0,0,1,1.57,1.41,2.41,2.41,0,0,1-.37,2.14,77.66,77.66,0,0,1-5.25,6.86,3.39,3.39,0,0,0,.33,1.08,2,2,0,0,1,.11.2l.05.07c.47.11,1,.22,1.57.32h.15a9.35,9.35,0,0,1,2.58.35c.93.07,1.94.1,3,.1s1.91,0,3-.08c2.11-.12,4.25-.33,6.32-.52,3.19-.31,6.49-.62,9.74-.62a37.15,37.15,0,0,1,8,.79c10.87,2.38,14.52,8.65,15.72,12.17a2,2,0,0,1-.25,1.91,2.36,2.36,0,0,1-1.92,1h0l-.3,0a108.34,108.34,0,0,1-11.64-2.27,112,112,0,0,0-11.62-2.27,40.81,40.81,0,0,0-4.73-.29,26.12,26.12,0,0,0-11,2.19l.26.11c3,1.19,6.07,2.42,9,3.79,2.47,1.14,6.6,3.75,6.47,8.33a5.92,5.92,0,0,1-6.18,6c-.23,0-.47,0-.71,0a11.66,11.66,0,0,1-1.89-.34l.31.83a25.54,25.54,0,0,1,6.34,20.79,2.27,2.27,0,0,1-2.1,1.78,1.56,1.56,0,0,1-.48-.08l-1.61-.52a57.41,57.41,0,0,0-6.77-1.88,18.66,18.66,0,0,0-3.56-.39,8.89,8.89,0,0,0-2.93.44c-1.34.45-3.2,1.78-3.18,3.36l.31.35.64.7c.18.22.36.45.55.73a9.38,9.38,0,0,0,2.06.36c.55,0,1.14.08,1.84.08s1.13,0,1.7,0,1.14,0,1.71,0c.4,0,.8,0,1.2,0a42.46,42.46,0,0,1,8,1.19c8.87,2.2,17.15,6.62,25.15,10.9,1.75.93,3.49,1.86,5.23,2.76a2.16,2.16,0,0,1,1.16,2.05,2.18,2.18,0,0,1-1.41,1.95,31.22,31.22,0,0,1-11.31,2.1,32.53,32.53,0,0,1-4.4-.3l.79.76a2.24,2.24,0,0,1,.52,2.61c-1.29,2.67-4,4.2-7.36,4.2a12.25,12.25,0,0,1-5.77-1.48,31.49,31.49,0,0,1-3.9-2.66,36.76,36.76,0,0,0-3.13-2.22c-.26-.16-.55-.33-.89-.5a6.62,6.62,0,0,1-.78.18,57.9,57.9,0,0,1,16.36,24.16c.79,2.25,2,5.64.11,8.29a6.21,6.21,0,0,1-5.19,2.43,8.2,8.2,0,0,1-2-.25,11.08,11.08,0,0,1-5.69-3.63,63.36,63.36,0,0,1,3.57,7.26c1.17,2.82,2.42,6.09,2.47,9.37a9.81,9.81,0,0,1-3.37,7.93,8,8,0,0,1-5.06,1.9,6.52,6.52,0,0,1-2.4-.45c-2.43-.95-4.08-3.42-4.92-7.34a44.68,44.68,0,0,1-.65-4.56,36.18,36.18,0,0,0-.83-5.36c-.86-3.29-2.25-5.33-4.16-6.06a4.71,4.71,0,0,0-1.67-.31,3.54,3.54,0,0,0-2.26.73c1.46,2.46,2.8,5.15,2.8,8.13a8.31,8.31,0,0,1-3.44,6.81,6.83,6.83,0,0,1-4,1.36,5.6,5.6,0,0,1-3.14-.94,6,6,0,0,1-1.71-1.77,66,66,0,0,1-1,7.5c-.5,2.66-1.14,5.33-1.75,7.92-.46,1.94-.93,3.94-1.35,5.92A69.47,69.47,0,0,0,218,231.58v1.58a56.49,56.49,0,0,1-1,12.76,39.45,39.45,0,0,1-4.74,11.19c-1.8,3-3.88,5.9-5.89,8.7a94.61,94.61,0,0,0-7.49,11.57c-.64,1.23-1.23,2.52-1.8,3.77a40.9,40.9,0,0,1-4.27,7.8c-2.92,3.9-7.24,6.09-10.68,7.56A59,59,0,0,1,158.79,301Zm-56.73-23.56a2.15,2.15,0,0,1,.77.27c2.24,1.28,4.22,2.39,6,3.39,13.26,7.25,30.91,15.57,49.81,15.57.66,0,1.33,0,2,0a57.36,57.36,0,0,0,13.5-2A37.32,37.32,0,0,0,186,289.51c3.42-2.42,5.2-5.92,7-9.91a73.39,73.39,0,0,1,5.73-10.43c1.23-1.84,2.55-3.68,3.83-5.45,3.25-4.51,6.61-9.18,8.77-14.41,2.23-5.38,2.31-11.2,2.38-16.82a81.13,81.13,0,0,1,.5-9.58,120.5,120.5,0,0,1,2.41-11.9,96.4,96.4,0,0,0,2.7-14.72c.55-7.12-1.44-13.9-3.37-20.46-.64-2.18-1.3-4.44-1.86-6.69A82.51,82.51,0,0,1,212,154.45l-.08-1.13a81,81,0,0,0-1.55-12.94,53.76,53.76,0,0,0-11.19-22.33,44,44,0,0,1-5.67-6.66l-.56-.75a32.65,32.65,0,0,0-4.11-4.72,63.2,63.2,0,0,0-12.73-5.64c-4.9-1.65-9.88-2.91-14.53-4l-1.42-.34c-4.44-1.06-9-2.17-13.61-2.9a53.55,53.55,0,0,0-8.41-.75,31.35,31.35,0,0,0-6.83.7c-4.4,1-8.4,3.15-12.26,5.26l-1.27.69A71.34,71.34,0,0,1,104,104.59l-2.23.68-.1,0c-1.11.62-2.27,1.2-3.41,1.72-5.65,3.32-11.21,6.89-16.51,10.63a15.8,15.8,0,0,0-2.18,3.64c-.38,2.16-.84,4.43-1.39,6.91a35.62,35.62,0,0,1-1.82,7.49c-.58,2.18-1.18,4.3-1.78,6.29l-.3,1.63c-.48,2.55-1,5.12-1.6,7.61-.65,2.95-1.32,6-1.85,9-.25,3.62-.47,7.45-.65,11.39,0,1-.13,1.91-.25,2.76.08,1.17.18,2.22.3,3.19a104,104,0,0,0,3.66,16.05L75.16,198c1.15,3.79,2.33,7.72,3.29,11.63,1.3,5.24,2.22,10.49,3.2,16.77l.19,1.2c.76,4.86,1.55,9.88,2.58,14.89.12.37.23.76.33,1.16l.08.2,0,.06,0,.05a16.5,16.5,0,0,1,.38,2.1C89.7,265.36,97,273.21,102.06,277.44ZM55.74,184.52c-1.73,0-3.61.86-3.72,3.29-.18,3.93,2.66,6.79,5.41,9.55a26,26,0,0,1,4,4.79c1.78,3.06,1.92,6.41,2,9.37v.32a11.63,11.63,0,0,0,.62,3.95A4.92,4.92,0,0,0,66.3,218l.57.4c2.4,1.7,3.32,4.46,2.87,8.69-.06.64-.15,1.26-.23,1.88a17.76,17.76,0,0,0,.06,7.26,14.78,14.78,0,0,0,4.77,7.51,7.9,7.9,0,0,0,4.28,2.12h.21a2.59,2.59,0,0,0,1.61-.52c-.19-.88-.32-1.61-.41-2.29V243c-.9-4.57-1.63-9.23-2.33-13.74-.23-1.48-.46-3-.7-4.43a158.79,158.79,0,0,0-3.51-16.95c-.77-2.83-1.63-5.68-2.45-8.44-.56-1.85-1.12-3.71-1.66-5.57a2.06,2.06,0,0,1-1.25-.56l-1.64-1.5-3.6-3.27a18.57,18.57,0,0,0-4.72-3.44A5.91,5.91,0,0,0,55.74,184.52ZM241.87,166a63,63,0,0,1,6.5,7.45c-.1-.18-.2-.35-.29-.53a17.93,17.93,0,0,0-4.45-5.81A9.37,9.37,0,0,0,241.87,166ZM29.47,36.68a21.05,21.05,0,0,0,2.26,8.14c.27.49.86,1.59,1.49,1.59a.63.63,0,0,0,.19,0c.27-.09.64-.47.88-1.73a9.66,9.66,0,0,0-.44-4.11,13.26,13.26,0,0,1-.55-3.16c0-.21,0-.44,0-.7a9.85,9.85,0,0,1-2,.22h-.35A7.58,7.58,0,0,1,29.47,36.68Zm-8-3.55-.63.17a12.83,12.83,0,0,0-3.93,1.88c-1.74,1.26-3.38,3.76-2.87,6.27a3,3,0,0,0,1.66,2.28,1.61,1.61,0,0,0,.54.09c1.07,0,2.21-.9,3.05-1.56l.16-.12A21.23,21.23,0,0,0,25.27,35a2.11,2.11,0,0,1,.42-.56,7.24,7.24,0,0,1-.75-1.07,1.08,1.08,0,0,1-.08-.19l0,0-1.57,0-1.68,0ZM7.17,23.71a4.89,4.89,0,0,0-.54,0,2.64,2.64,0,0,0-1.71.82.8.8,0,0,0-.15.66c.13.6.93,1.15,2.39,1.64a29,29,0,0,0,5,1.05l.68.1a65.77,65.77,0,0,0,7.76.71,51.91,51.91,0,0,0-8.51-3.78l-.69-.24A13.61,13.61,0,0,0,7.17,23.71Zm13-14.49a5.22,5.22,0,0,0,.06.93A43.17,43.17,0,0,0,25.77,25.3a10.52,10.52,0,0,1,1.51-2.19,2.11,2.11,0,0,1-.48-.73,30.12,30.12,0,0,1-1.21-4.3,21.66,21.66,0,0,0-1.88-5.75A6.4,6.4,0,0,0,21,9.48a2.34,2.34,0,0,0-.4-.12A2.83,2.83,0,0,1,20.17,9.22ZM41,24.62c.28,0,.56.07.84.09.5,0,1,.06,1.55.06a24.36,24.36,0,0,0,2.51-.14,22,22,0,0,0,4.21-.84c.17-.06.37-.11.58-.17a5.27,5.27,0,0,0,2.62-1.19.34.34,0,0,0,.06-.36c-.33-.79-3.14-1.53-4-1.66a10.81,10.81,0,0,0-1.61-.12,11.63,11.63,0,0,0-5.32,1.32l-2.37,2a8,8,0,0,1,.63,1Zm-7.43-4.46a7.39,7.39,0,0,1,2.81.57,15.71,15.71,0,0,1,3.73-2.8l1.25-1.06a17.78,17.78,0,0,0,4.09-4.47,6.06,6.06,0,0,0,.4-5.57,3.39,3.39,0,0,0-3-1.68h-.29c-4.27,0-7.42,3.79-8.58,5.42a16.4,16.4,0,0,0-3,10,7.85,7.85,0,0,1,2.51-.44Z"/><path d="M285.31,82.63C283,75.77,276.42,72,269.67,70.54c-8-1.76-16-.1-24,.35a44.35,44.35,0,0,1-6,0,9.22,9.22,0,0,0-2.63-.34H237c-.55-.09-1.09-.19-1.63-.32l-.19-.32a3.71,3.71,0,0,1-.35-1.18,76.63,76.63,0,0,0,5.28-6.89,2.1,2.1,0,0,0-1.14-3.37,15.56,15.56,0,0,0-9.14-.11c-1.51.48-1.72,1.62-2.41,2.87a13.63,13.63,0,0,1-2.18,2.89A13.86,13.86,0,0,1,219,67.76a10,10,0,0,1-1.8.42,2.07,2.07,0,0,1-.63-1.06,5.7,5.7,0,0,0-.73-1.71c.94-3.53,4.65-5.45,7.64-7,3.71-1.93,7.9-3.67,10.67-6.95,1.71-2,2.56-5.11.48-7.21-1.64-1.67-4.14-1.58-6.23-1-2.43.71-4.6,2.36-6.67,3.76q-3.84,2.63-7.41,5.62c-6.57,5.53-15.19,16.48-25,11.49a6.64,6.64,0,0,1-3.66-4.43c-.51-2.52.79-4.95,2.51-6.7a12,12,0,0,1,7.2-3.32,2.68,2.68,0,0,0,1.29-.13,47,47,0,0,1,9.95.81,2.07,2.07,0,0,0,2.46-2.15c-.52-6.33-5.79-11.51-12-12.62a14,14,0,0,0-9.52,1.86C185,38.92,182,41.26,179,39.63a4.33,4.33,0,0,1-1-7,13.78,13.78,0,0,0,12.64-4.16,2.08,2.08,0,0,0-.64-3.19c-5.64-2.93-11.79-5.87-18.3-4.44a13.64,13.64,0,0,0-6.87,3.76,10,10,0,0,0-2.09,3.17,5,5,0,0,0-2.21-2.07c-2-.94-4.39-.53-6.45.16-1.52.51-3.44,1.55-5.1,1l-1-1a27.46,27.46,0,0,0-2.75-2.75,12.9,12.9,0,0,0-4-3.62,11.44,11.44,0,0,0-11,.12,11,11,0,0,0-4.71,5.6l-5.46-8.57a13,13,0,0,1-.43-2.68c2.61-2.94,7.91-2.74,11.65-2.72,4,0,4.53-4.83,2.42-7.2A10.34,10.34,0,0,0,127.33.57c-10.78-2.36-22.88,4.86-25,16a2.1,2.1,0,0,0,0,.83c-1.27,4.16.48,8.66,2.87,12.37,1.13,1.74,2.4,3.41,3.41,5.23a38,38,0,0,1,.63,8.65c-.14.27-.29.53-.46.8-1.43,2.25-3.06,4.23-3.88,6.82-.17.54-.3,1.09-.42,1.64a21.55,21.55,0,0,1-2-4.56c-1.12-3.36-1.91-6.83-3.49-10a16.79,16.79,0,0,0-2.69-4.1c-2.36-3.24-5.86-5.67-10.06-4.46a7.11,7.11,0,0,0-5,5.32,6.46,6.46,0,0,0,2.4,6c1.41,1.19,3.3,2,4.7,3a5,5,0,0,1,1.88,2.74,36,36,0,0,0,.56,9.35,15.78,15.78,0,0,0,2,5.36c0,.34.11.69.17,1a25.64,25.64,0,0,1-6.63-3.12A18.41,18.41,0,0,1,81,53a54.65,54.65,0,0,0-9.26-12.28A50.81,50.81,0,0,0,49.83,28.22c2.84-.65,6.87-1.76,7.68-5,.86-3.43-2.65-5.7-5.42-6.55A14.52,14.52,0,0,0,48,16.08c2.47-3.28,3.67-7.85,1.4-11.58C47.27,1,42.87.38,39.2,1.45a16.91,16.91,0,0,0-8.9,7,22,22,0,0,0-2,3.83,13.32,13.32,0,0,0-1.88-3.55c-2-2.68-7.94-6.19-10-1.57-.87,1.89-.21,4.11.21,6a48.11,48.11,0,0,0,1.94,6.54c.51,1.37,1.09,2.71,1.72,4a55.64,55.64,0,0,0-5.8-2.45c-3.49-1.23-7.68-2.85-11.17-.77A5.21,5.21,0,0,0,2.19,28.8c2.4,2.35,6.27,2.8,9.42,3.29.7.12,1.41.2,2.12.29A11.74,11.74,0,0,0,11.39,35a9.53,9.53,0,0,0-.53,9.72,6.45,6.45,0,0,0,4.19,3.16,7.64,7.64,0,0,0,5.43-1.32A22,22,0,0,0,26,41.54a26.32,26.32,0,0,0,1.79,4.87c1.3,2.61,3.82,5.1,7,4,2.59-.93,3.69-3.88,3.78-6.41.08-2.32-1.33-4.86-1-7.16a25.24,25.24,0,0,0,4.79,3.77,28.16,28.16,0,0,0,7.49,3.35c4.59,1.3,10.29.75,14.32,3.59.2.14.37.29.55.44.54.55,1.06,1.12,1.55,1.72a19.37,19.37,0,0,1,2.15,4.41c1.14,3,2.2,6.08,3.3,9.12l1.46,4a.5.5,0,0,0,0,.12l-.27,1-.18.56v0c-.26.69-.53,1.38-.85,2s-.56,1.1-.87,1.64c-1.6.34-3.23.66-4.76,1a155.94,155.94,0,0,1-19.56,3.05c-10,.82-20.8.15-30.07,4.34A20.59,20.59,0,0,0,6.49,85.57a19.62,19.62,0,0,0-4.84,5.88,9.5,9.5,0,0,0-.91,2.64c-1.32,2.4-.56,5.74,2.56,6.29l.14,0a6,6,0,0,0,4.35.2,36.72,36.72,0,0,0,7.92-2.91,91.4,91.4,0,0,1,36.18-8c1.62,0,3.23,0,4.84.08-4.22,3.55-9.32,6-14.29,8.32-6.49,3.08-13.7,6.33-18.24,12.13-2.78,3.55-4.35,7.88-3.12,12.35a2.07,2.07,0,0,0,3.49.67,34.87,34.87,0,0,1,5.25-5.6,4,4,0,0,0,.83-.71,34.41,34.41,0,0,1,7.61-4.65c-.75,4.4-4.4,8-8.07,10.39-5.12,3.33-11.35,5.46-15.65,9.95-1.67,1.75-2.94,4.69-1.92,7.06,1.42,3.26,5.09,2.41,7.69,1.36a38.4,38.4,0,0,0,8.15-4.52,40.24,40.24,0,0,0,3.69-3.09c1.06-1,2-2.13,3.11-3.06A4.09,4.09,0,0,1,38,129.2c1,.06,1.66.48,1.32,1.46a14.15,14.15,0,0,1-2.47,3.55c-.95,1.2-1.93,2.38-2.95,3.52a72,72,0,0,1-13.77,11.94A71.29,71.29,0,0,1,12.65,154q-2.06,1-4.17,1.92a22.73,22.73,0,0,0-4.24,2c-5,3.48-3.17,11.49,2.83,12.52,3.48.59,6.07-1.3,8.19-3.84a8.58,8.58,0,0,1,3.11-2.82,10.38,10.38,0,0,1,4.83-.35c3.54.31,6.84.47,10.28-.59a19.92,19.92,0,0,0,2-.77A87.93,87.93,0,0,1,25,177.65a16.87,16.87,0,0,0-4,3.62A15.62,15.62,0,0,0,17,188.65c-1.09,5.06.87,10.74,5.55,13.26a2.07,2.07,0,0,0,2.85-2.52,7.39,7.39,0,0,1-.05-5.08,3.45,3.45,0,0,0,.61-.91c.21-.45.42-1,.64-1.46A6.93,6.93,0,0,1,30,189.47a4.05,4.05,0,0,0,1.81,1.21,5.2,5.2,0,0,0,2.83-.42A14,14,0,0,0,39,186.83c.15-.15.31-.32.48-.48a14.33,14.33,0,0,0,3.46-1.2c.48.73-.28,2.62-.45,3.26-2.16,8.47-5.08,16.94-4.61,25.8a27.86,27.86,0,0,0,4,13.33,2.07,2.07,0,0,0,2.85.54c4.78-3.66,6.36-9.63,6.39-15.42a101.43,101.43,0,0,0-1-10.58,42.76,42.76,0,0,1-.29-5.43,17.7,17.7,0,0,1,.11-1.77,38.5,38.5,0,0,0,5.14,6,17.13,17.13,0,0,1,3.21,4.23,12.92,12.92,0,0,1,1,5.07c.15,3.46.12,7.26,2.73,9.89,1.17,1.19,3.07,1.66,3.53,3.42a12.55,12.55,0,0,1-.21,5,20.57,20.57,0,0,0,1,11.15,18.45,18.45,0,0,0,8.15,9.27,8.74,8.74,0,0,0,6.57.92,5.84,5.84,0,0,0,.66-.24c.64,2.52,1.38,5,2.25,7.49,3.52,9.92,9.19,19.43,18,25.56a2.43,2.43,0,0,0,1.8.44c15.6,8.75,32.24,16.5,50.31,17.69a61.16,61.16,0,0,0,28.13-4.31c4-1.73,8-4,10.64-7.52s4-7.69,6-11.56c3.73-7.22,9.23-13.32,13.39-20.27a39.63,39.63,0,0,0,4.72-11.16c1.11-4.68,1-9.54,1-14.32a69.75,69.75,0,0,1,1.52-13.89c1-4.63,2.22-9.2,3.1-13.84a61.18,61.18,0,0,0,1-7.87,6,6,0,0,0,1.88,2.06,6.12,6.12,0,0,0,7-.41,8.23,8.23,0,0,0,3.39-6.72c0-3-1.35-5.66-2.84-8.16a4.22,4.22,0,0,1,4.14-.5c2.45.94,3.61,3.79,4.23,6.14.84,3.23.78,6.65,1.48,9.93.61,2.87,1.89,6.09,4.85,7.25a7.41,7.41,0,0,0,7.33-1.43,9.63,9.63,0,0,0,3.32-7.84c0-3.22-1.23-6.39-2.45-9.32a62.89,62.89,0,0,0-4.17-8.28l-.24-.38a12.07,12.07,0,0,0,6.67,4.86c2.5.63,5.48.07,7-2.13,1.77-2.48.79-5.57-.13-8.18A57.84,57.84,0,0,0,257.21,158a59.22,59.22,0,0,0-8.64-9.4,7.7,7.7,0,0,0,1.06-.23c.33.17.65.34,1,.52,2.43,1.5,4.5,3.51,7,4.89,4.21,2.29,10.62,2.21,13-2.68a2.13,2.13,0,0,0-.49-2.46l-1.06-1a31.44,31.44,0,0,0,16-1.73,2.08,2.08,0,0,0,.23-3.78c-9.77-5.07-19.58-11-30.35-13.65a42.13,42.13,0,0,0-8-1.19c-2.14-.11-4.31.16-6.45,0a8.64,8.64,0,0,1-2.12-.38,9.29,9.29,0,0,0-.57-.75l-1-1.08c-.05-1.68,1.86-3.06,3.26-3.53a13.21,13.21,0,0,1,6.55,0,72.46,72.46,0,0,1,8.4,2.41,2.06,2.06,0,0,0,2.42-1.61,25.3,25.3,0,0,0-6.33-20.7v0l-.38-1a12.41,12.41,0,0,0,2.09.39c3.72.34,6.66-2,6.76-5.81s-3.07-6.67-6.4-8.21c-3.11-1.45-6.33-2.72-9.53-4,4.91-2.36,10.66-2.68,16.06-2,7.86,1,15.4,3.59,23.26,4.54A2.07,2.07,0,0,0,285.31,82.63ZM7.12,27c-.8-.27-2.28-.84-2.47-1.73s1.14-1.55,2-1.63c1.83-.19,3.84.63,5.54,1.2a52.72,52.72,0,0,1,9,4,67.71,67.71,0,0,1-8.28-.73A34.82,34.82,0,0,1,7.12,27Zm18.26,8a21.52,21.52,0,0,1-5.85,7.21c-1,.76-2.51,2.06-3.86,1.62a3.1,3.1,0,0,1-1.74-2.37c-.5-2.44,1-5,2.91-6.4a13.12,13.12,0,0,1,4-1.89l.75-.21c1.12,0,2.23,0,3.35,0,0,.09.08.2.13.29a6.7,6.7,0,0,0,.81,1.14A2,2,0,0,0,25.38,35Zm.4-9.46a43.32,43.32,0,0,1-5.67-15.39,4.3,4.3,0,0,1,0-1.13l.1.05c.24.13.6.16.86.28a6.63,6.63,0,0,1,2.78,2.91c1.71,3.07,1.83,6.81,3.1,10.06a2,2,0,0,0,.54.76A10.37,10.37,0,0,0,25.78,25.56Zm8.63,19.11c-.1.53-.36,1.61-1,1.82-.81.29-1.51-1-1.82-1.61a21.64,21.64,0,0,1-2.3-8.35,7.82,7.82,0,0,0,1.61.24,9.53,9.53,0,0,0,2.52-.24c0,.28,0,.57,0,.85C33.44,39.81,34.88,42.26,34.41,44.67Zm2-23.8a7.44,7.44,0,0,0-2.87-.59,7.87,7.87,0,0,0-2.63.49,16.48,16.48,0,0,1,3-10.28c2-2.83,5.27-5.61,9-5.46,4,.17,4.32,4.59,2.7,7.43A18,18,0,0,1,41.4,17L40.12,18A15.48,15.48,0,0,0,36.37,20.87Zm9.51,3.88a23.29,23.29,0,0,1-4.09.08c-.39,0-.79-.09-1.19-.13a8.58,8.58,0,0,0-.71-1.1l2.47-2.1a11.58,11.58,0,0,1,7-1.21c.76.11,4.84,1.1,4,2.22-.61.79-2.38,1.12-3.26,1.39A21.15,21.15,0,0,1,45.88,24.75ZM78.61,246a8.23,8.23,0,0,1-4.35-2.15,14.92,14.92,0,0,1-4.8-7.56c-.87-3.14-.17-6,.16-9.19s0-6.57-2.82-8.58c-1.11-.79-2.21-1.33-2.76-2.65a12.59,12.59,0,0,1-.64-4.31c-.14-3.3-.33-6.4-2-9.32-2.76-4.75-9.76-8.22-9.48-14.41.15-3.36,3.68-4,6.32-2.86A18.32,18.32,0,0,1,63,188.4l5.24,4.77a1.93,1.93,0,0,0,1.27.53c1.35,4.7,2.84,9.37,4.13,14.09a163.71,163.71,0,0,1,3.51,17c1,6,1.84,12.13,3,18.15a.48.48,0,0,1,0,.12,23.84,23.84,0,0,0,.43,2.36A2.8,2.8,0,0,1,78.61,246ZM219.45,196.3c-.7,9-3.92,17.66-5.11,26.63-1.16,8.81.59,18-2.89,26.43-3,7.3-8.26,13.37-12.61,19.88a72.6,72.6,0,0,0-5.72,10.41c-1.72,3.8-3.54,7.48-7,10a38.28,38.28,0,0,1-11.87,5.19,57.19,57.19,0,0,1-13.52,2c-18.5.57-35.95-6.85-51.87-15.56-2-1.11-4-2.24-6-3.39a2,2,0,0,0-.76-.26c-9.55-7.92-14.13-19.43-16.94-31.43-.09-.72-.22-1.43-.38-2.14,0,0,0,0,0,0a1.8,1.8,0,0,0-.08-.21q-.15-.58-.33-1.17c-1.12-5.42-2-10.87-2.77-16.09-.88-5.62-1.83-11.23-3.19-16.76s-3-10.71-4.61-16a103.12,103.12,0,0,1-3.67-16.08c-.14-1.07-.23-2.15-.3-3.22.13-.9.21-1.83.25-2.75q.26-5.72.65-11.4c1-5.57,2.4-11,3.45-16.61q.15-.81.3-1.65c.64-2.08,1.23-4.18,1.79-6.29A36.3,36.3,0,0,0,78,128.17c.5-2.3,1-4.6,1.39-6.92h0a15.61,15.61,0,0,1,2.22-3.69q8-5.67,16.53-10.64c1.16-.53,2.3-1.11,3.43-1.72l2.33-.72a70.56,70.56,0,0,0,13.83-5.67c4.36-2.36,8.68-4.89,13.57-6a41.32,41.32,0,0,1,15.28,0c5.06.81,10.06,2,15,3.25s9.77,2.42,14.54,4A62.17,62.17,0,0,1,189,105.83a33.42,33.42,0,0,1,4.13,4.74A49.54,49.54,0,0,0,199.3,118a53.55,53.55,0,0,1,11.22,22.37,90.1,90.1,0,0,1,1.63,14.09,82.27,82.27,0,0,0,2.06,14.67C216.48,178.15,220.18,186.79,219.45,196.3ZM254,194.09a10.76,10.76,0,0,1,.21,3.07,20.25,20.25,0,0,0-.66-4.85C253.71,192.9,253.86,193.49,254,194.09ZM243.71,167a18.35,18.35,0,0,1,4.48,5.85c.43.79.87,1.6,1.34,2.41a63.34,63.34,0,0,0-8.2-9.64A8.71,8.71,0,0,1,243.71,167Z"/><path d="M89.19,171.68a2.19,2.19,0,0,1-2-1.56,2.14,2.14,0,0,1,.72-2.48,41,41,0,0,1,25.15-8.56,40.14,40.14,0,0,1,8.06.81,2,2,0,0,1,1.67,2.31,2.12,2.12,0,0,1-2,2h0a2.81,2.81,0,0,1-.49-.05,35.49,35.49,0,0,0-7.21-.73,37,37,0,0,0-22.66,7.79A1.94,1.94,0,0,1,89.19,171.68Z"/><path d="M121.14,160A41,41,0,0,0,88,167.73c-2.07,1.62.22,5,2.31,3.4a36.91,36.91,0,0,1,30-7.09C122.91,164.57,123.73,160.54,121.14,160Z"/><path d="M111.36,179.7a37.8,37.8,0,0,1-14.59-2.91l-.11,0,0,0-.08-.08a3.67,3.67,0,0,1-1.39-.67l-.18-.14-.07-.07a9.62,9.62,0,0,1-1.33-.86,6,6,0,0,1-.83-.76,10.41,10.41,0,0,1-1-1.23,2.19,2.19,0,0,1,.25-2.72,1.85,1.85,0,0,1,.86-.92c5.69-3.18,12.51-4.83,21.49-5.17,1.8-.07,3.94-.15,6.09-.15,1.62,0,3.09,0,4.48.13a16.13,16.13,0,0,1,4.85.9,8.4,8.4,0,0,1,1.24.58,7.32,7.32,0,0,1,1.49.56,6.87,6.87,0,0,1,2.36,2.08l0,.06a2.51,2.51,0,0,1,.64,1.83,2.18,2.18,0,0,1-.83,1.52,37.22,37.22,0,0,1-23.31,8ZM97.3,172.19l.06,0,.38.16a1.1,1.1,0,0,1,.26.15l.35.13a2.08,2.08,0,0,1,.38.22,33.07,33.07,0,0,0,7.54,2.09,5.54,5.54,0,0,1-.69-.86,5.87,5.87,0,0,1-.89-4.49A33.68,33.68,0,0,0,97.13,172Zm27.11-3.79a3.78,3.78,0,0,1,0,2.4,8.85,8.85,0,0,1-1.19,2.38,32.94,32.94,0,0,0,6.39-3.21l-.2-.17-.13,0a2,2,0,0,1-.74-.2l-.45-.3a1.48,1.48,0,0,1-.28-.28A14.35,14.35,0,0,0,124.41,168.4Z"/><path d="M134.77,168.44l0-.07a6.59,6.59,0,0,0-3.77-2.59h-.05a8.54,8.54,0,0,0-1.22-.58,16.82,16.82,0,0,0-4.82-.89c-3.5-.21-7.06-.12-10.56,0-7.44.29-14.86,1.48-21.43,5.16a1.78,1.78,0,0,0-.83.9,2,2,0,0,0-.23,2.56,9.68,9.68,0,0,0,1,1.22,6.52,6.52,0,0,0,.82.75,9.83,9.83,0,0,0,1.29.84l0,0,.24.2a3.9,3.9,0,0,0,1.32.66h.08l.2,0c12.28,5.2,27.33,3.35,37.77-5.07A2.14,2.14,0,0,0,134.77,168.44ZM98.65,173a1.36,1.36,0,0,0-.35-.21,2,2,0,0,0-.34-.12,1.83,1.83,0,0,0-.26-.16l-.48-.2-.31-.27a33.6,33.6,0,0,1,7.94-2.55,5.65,5.65,0,0,0,.83,4.57,6.21,6.21,0,0,0,.94,1.1A33.27,33.27,0,0,1,98.65,173Zm24.25.46a8.38,8.38,0,0,0,1.41-2.66,3.65,3.65,0,0,0-.08-2.51,15.48,15.48,0,0,1,3.64.62l0,0a1.48,1.48,0,0,0,.28.28l.43.29a2.21,2.21,0,0,0,.7.19l.16,0a3.52,3.52,0,0,1,.35.31A32.6,32.6,0,0,1,122.9,173.43Z"/><path d="M186.76,177a35.19,35.19,0,0,1-4.24-.29l-.71-.09a25.75,25.75,0,0,1-4.27-.73,16.2,16.2,0,0,1-4-2l-5-3a2.67,2.67,0,0,1-1-1.14,1.85,1.85,0,0,1-.39-.4,1.6,1.6,0,0,1-.32-.8,1.7,1.7,0,0,1,0-.87,1.56,1.56,0,0,1,.35-.76,1.6,1.6,0,0,1,.56-.6l.46-.26c.31-.19.63-.38,1-.56a5.79,5.79,0,0,1,.75-.37L170,165a.82.82,0,0,1,.21-.11,100.06,100.06,0,0,1,19.65-4.86,28.75,28.75,0,0,1,4-.29,23.32,23.32,0,0,1,5.71.7,53.65,53.65,0,0,1,8.79,3.32,1.93,1.93,0,0,1,1.2,1.78,2.41,2.41,0,0,1-1.36,2.14l-.15.15-.08.07-.19.16-.13.1-.14.09-.17.08a2,2,0,0,1-.74.75l-1.89,1.13c-5.24,3.15-10.65,6.41-16.83,6.71C187.49,177,187.12,177,186.76,177Zm-11.89-7.38.83.53a12,12,0,0,0,2.94,1.54c.27.08.56.15.91.22a6.18,6.18,0,0,1-.21-.65,7.84,7.84,0,0,1-.71-4c0-.12,0-.25,0-.38-2,.57-3.84,1.11-5.48,1.67Zm22.4-5.17a8.56,8.56,0,0,1-1.68,5.95,74.54,74.54,0,0,0,6.54-3.67l.83-.51a31.2,31.2,0,0,0-4.74-1.58C197.9,164.55,197.59,164.48,197.27,164.43Z"/><path d="M208.28,163.91a52.17,52.17,0,0,0-8.77-3.32,24.37,24.37,0,0,0-9.62-.41A99.54,99.54,0,0,0,170.26,165a2.69,2.69,0,0,0-.29.16h0a6.24,6.24,0,0,0-.73.37c-.48.26-.94.54-1.41.81a1.63,1.63,0,0,0-.54.57,1.57,1.57,0,0,0-.32.72,2.3,2.3,0,0,0,.32,1.57,2.27,2.27,0,0,0,.4.42,2.48,2.48,0,0,0,1,1.09l4.54,2.78a18.75,18.75,0,0,0,4.39,2.24,45.63,45.63,0,0,0,10.26,1.07c6.91-.34,12.91-4.41,18.67-7.83a1.77,1.77,0,0,0,.71-.73,1.24,1.24,0,0,0,.2-.1.57.57,0,0,0,.13-.08l.12-.09.25-.22.2-.17C209.52,167,210.08,164.72,208.28,163.91Zm-29.68,7.87a17,17,0,0,1-3.79-2.07l-1.94-1.19h0l0-.05c1.91-.65,3.85-1.23,5.8-1.77a5.09,5.09,0,0,0,0,.55,7.82,7.82,0,0,0,.71,4,4.9,4.9,0,0,0,.29.84A11.29,11.29,0,0,1,178.6,171.78Zm16.56-1.07c.1-.12.2-.23.29-.35a8.47,8.47,0,0,0,1.68-6.08c.37.06.75.14,1.12.23a32.37,32.37,0,0,1,5,1.67A79.48,79.48,0,0,1,195.16,170.71Z"/><path d="M164.81,176.76a2.38,2.38,0,0,1-2.06-1.44,24.13,24.13,0,0,1,2.72-24.82,1.89,1.89,0,0,1,1.52-.8,2.34,2.34,0,0,1,2,1.35,2.11,2.11,0,0,1-.25,2.3,19.63,19.63,0,0,0-1.91,20.5,1.79,1.79,0,0,1,0,1.47,2.36,2.36,0,0,1-1.33,1.32A2.16,2.16,0,0,1,164.81,176.76Z"/><path d="M165.57,150.58a23.88,23.88,0,0,0-2.71,24.68,2.12,2.12,0,0,0,2.62,1.26,2.06,2.06,0,0,0,1.26-2.62,19.82,19.82,0,0,1,1.93-20.62C170.28,151.19,167.19,148.48,165.57,150.58Z"/><path d="M138.88,212.25a10.4,10.4,0,0,1-10.31-7.49,11,11,0,0,1,.93-8,10.36,10.36,0,0,1,2.73-3.22,18.57,18.57,0,0,1,2.12-1.41c.55-.33,1.12-.68,1.64-1.05a2.06,2.06,0,0,1,1.21-.42,2.23,2.23,0,0,1,2,1.62,2.06,2.06,0,0,1-.79,2.39c-.54.39-1.12.73-1.67,1.07s-1.1.66-1.62,1a6,6,0,0,0-1.65,1.73,6.63,6.63,0,0,0-.85,4.79,6,6,0,0,0,2.68,3.7,7,7,0,0,0,3.47,1,5.32,5.32,0,0,0,1.27-.15,2.59,2.59,0,0,1,.68-.09,2.1,2.1,0,0,1,2.08,1.42,2.33,2.33,0,0,1-.17,1.82,1.84,1.84,0,0,1-1.17,1,10.93,10.93,0,0,1-2.62.32Z"/><path d="M142.73,209.19a2.11,2.11,0,0,0-2.62-1.26,6.47,6.47,0,0,1-4.83-.86,6.05,6.05,0,0,1-2.74-3.78,6.75,6.75,0,0,1,.86-4.87,6.16,6.16,0,0,1,1.69-1.77c1.06-.75,2.23-1.34,3.29-2.1,2.14-1.54-.16-4.94-2.32-3.39-1.21.87-2.59,1.52-3.76,2.45a10.63,10.63,0,0,0-2.7,3.19,10.93,10.93,0,0,0-.92,7.93c1.42,5.49,7.52,8.41,12.79,7.08A2.07,2.07,0,0,0,142.73,209.19Z"/><path d="M160.66,218.15a9.05,9.05,0,0,1-3.87-1,12.24,12.24,0,0,1-5.41-4.5,8.22,8.22,0,0,1-1-6.19l-.13,0a10.35,10.35,0,0,1-2.75.43,6.17,6.17,0,0,1-1.94.66,8.13,8.13,0,0,1-1.16.08c-.38,0-.76,0-1.15,0s-.73,0-1.09,0h0a11.47,11.47,0,0,0-1.35.09c-.43,0-.88.09-1.33.09a5.14,5.14,0,0,1-.91-.08,3.88,3.88,0,0,1-3-2.53,3.31,3.31,0,0,1,.68-3.37,4.88,4.88,0,0,1,4.13-3h.07a6.88,6.88,0,0,1,2.45-.39c.43,0,.9,0,1.47.08a8.41,8.41,0,0,1,4,1.2c.52-.05,1-.08,1.45-.08a8.1,8.1,0,0,1,4.22,1,15.58,15.58,0,0,1,2.1,1.58,15.4,15.4,0,0,0,1.92,1.46,2.24,2.24,0,0,0,1.16.38,3.08,3.08,0,0,0,2.05-1.17c.24-.24.46-.48.69-.72A14.61,14.61,0,0,1,165.8,199a16.34,16.34,0,0,1,6.48-1.53h.22c.62,0,1.27-.08,1.92-.08a7.44,7.44,0,0,1,3.5.7,3.44,3.44,0,0,1,.8.56,6.15,6.15,0,0,1,1.43.84,2.16,2.16,0,0,1,.71,2.09,4.86,4.86,0,0,1-4,3.45,7.31,7.31,0,0,1-2,.26c-.45,0-.93,0-1.4,0a25.54,25.54,0,0,1-4.38-.39,8.76,8.76,0,0,1-.38,5.76,18.52,18.52,0,0,1-4.06,5.7,5.65,5.65,0,0,1-3.85,1.78Zm-5.8-8.19.16.28.13.24a4.09,4.09,0,0,0,.76.91,8.37,8.37,0,0,0,2.41,1.66,7.82,7.82,0,0,0,1.4.59c.23.06.45.11.68.15l.12,0h0l.37,0,.17-.06h0l.07,0a2.69,2.69,0,0,0,.27-.2l.05-.06a12.77,12.77,0,0,0,.92-1l.17-.21a14.43,14.43,0,0,0,1.83-2.52c.12-.23.24-.46.34-.7s.09-.21.13-.32a.85.85,0,0,0,0-.09,6.77,6.77,0,0,0,.18-.79c0-.1,0-.21,0-.31v-.16s0-.47,0-.6a1.88,1.88,0,0,1,0-.19,1.55,1.55,0,0,0-.07-.23,2.25,2.25,0,0,0-.1-.23c-.06-.13-.1-.21-.12-.27l-.12-.17c-1.42,1.42-3.12,2.9-5.4,2.9a5.88,5.88,0,0,1-1.17-.12,8.35,8.35,0,0,1-3.22-1.62,2.09,2.09,0,0,1-.11.3c0,.1-.1.21-.14.31l-.05.18c0,.14,0,.27-.07.41V208a5.81,5.81,0,0,0,0,.88,1.39,1.39,0,0,1,0,.17h0s0,0,0,.12l.06.17C154.7,209.56,154.77,209.76,154.86,210Z"/><path d="M180.08,199.56a6.26,6.26,0,0,0-1.44-.85,3.58,3.58,0,0,0-.77-.55c-1.7-.86-3.74-.7-5.58-.58a16.2,16.2,0,0,0-6.43,1.51,18,18,0,0,0-4.53,3.91c-1,1.05-2,1.65-3.36.82s-2.56-2.19-4-3a9.09,9.09,0,0,0-5.63-.94,8.53,8.53,0,0,0-4-1.2,9,9,0,0,0-3.91.31,4.77,4.77,0,0,0-4.12,2.93,3.18,3.18,0,0,0-.64,3.24,3.73,3.73,0,0,0,2.89,2.45,20.29,20.29,0,0,0,3.57-.1,21.19,21.19,0,0,0,3.38,0,6.24,6.24,0,0,0,1.95-.66,10.7,10.7,0,0,0,2.73-.42l.34-.12a8.06,8.06,0,0,0,.94,6.32,12,12,0,0,0,5.36,4.45,9,9,0,0,0,4,1,5.55,5.55,0,0,0,3.76-1.74,18,18,0,0,0,4-5.67,8.63,8.63,0,0,0,.32-5.86,25.25,25.25,0,0,0,5.95.38,7.46,7.46,0,0,0,1.93-.25,4.8,4.8,0,0,0,3.93-3.38A2,2,0,0,0,180.08,199.56Zm-14.86,7.74v.16c0,.11,0,.21,0,.32a7.84,7.84,0,0,1-.18.81l0,.1-.13.31c-.11.25-.23.49-.35.72a14.86,14.86,0,0,1-1.85,2.54c-.35.42-.7.86-1.09,1.25l-.06.06-.28.21c-.21.13-.24.15-.11.06l-.2.06-.38,0-.14,0q-.34-.06-.69-.15a9.16,9.16,0,0,1-1.42-.6,8.42,8.42,0,0,1-2.45-1.68,4.3,4.3,0,0,1-.77-.94c0-.06-.29-.52-.3-.52-.11-.26-.2-.52-.29-.79l-.06-.16a1.26,1.26,0,0,0,0-.16,6.07,6.07,0,0,1-.06-.85l0-.12a3.1,3.1,0,0,1,.08-.42c0-.11,0-.17,0-.19a3.09,3.09,0,0,1,.14-.32,1.9,1.9,0,0,0,.15-.46,8.25,8.25,0,0,0,3.31,1.71c2.81.58,4.77-1,6.56-2.84a3.55,3.55,0,0,1,.23.31s.19.42.22.5,0,.18.07.26a1.88,1.88,0,0,0,0,.19C165.19,206.89,165.21,207.09,165.22,207.3Z"/><path d="M208.19,150.37a2.35,2.35,0,0,1-.45,0,65.87,65.87,0,0,1-8.45-2.35,55.56,55.56,0,0,0-10.09-2.6,45.83,45.83,0,0,0-5.91-.35,99.18,99.18,0,0,0-10.5.69,2.21,2.21,0,0,1-1.25.42,2.14,2.14,0,0,1-.85-.19l-.17,0a2.36,2.36,0,0,1-1.35.4,1.91,1.91,0,0,1-1.77-1,21.5,21.5,0,0,1-2-5.4c-.34-1.6-.77-3.59.36-5.15a3.56,3.56,0,0,1,2.82-1.48,2.89,2.89,0,0,1,2.07.85,2.72,2.72,0,0,1,.84,1.62c.41-.5.8-.94,1.18-1.34a2.21,2.21,0,0,1,1.59-.75,2.1,2.1,0,0,1,1.66.87,6.68,6.68,0,0,1,2.06-.82,7.45,7.45,0,0,1,1.61-.2,3.45,3.45,0,0,1,1.55.32,3,3,0,0,1,.92.73,6.37,6.37,0,0,1,2.83-.58,23.9,23.9,0,0,1,6.5,1.31l.95.29c3.63,1.05,8.27,2.7,11.95,6.1a2.17,2.17,0,0,1,.51.7,35.68,35.68,0,0,1,4.84,4.07,2.32,2.32,0,0,1,.5,2.52,2.06,2.06,0,0,1-1.92,1.29Z"/><path d="M209.52,146.65a34.49,34.49,0,0,0-4.84-4.08,2.13,2.13,0,0,0-.5-.69c-3.35-3.1-7.58-4.82-11.91-6.08-2.77-.8-7.4-2.49-10.26-1a3.59,3.59,0,0,0-.95-.78,5.09,5.09,0,0,0-3.09-.11,6.77,6.77,0,0,0-2.11.87,1.93,1.93,0,0,0-3.13-.2c-.48.5-.93,1-1.36,1.57a2.63,2.63,0,0,0-.84-1.85,3.13,3.13,0,0,0-4.71.63c-1.07,1.48-.69,3.38-.33,5a22.12,22.12,0,0,0,2,5.38,2.09,2.09,0,0,0,3,.48l.24,0a1.89,1.89,0,0,0,2-.22,70.39,70.39,0,0,1,16.47-.34c6.41.81,12.23,3.78,18.55,5A2.07,2.07,0,0,0,209.52,146.65Z"/><path d="M83.06,166.16a2,2,0,0,1-2-1.95,15.41,15.41,0,0,1,4.23-11.47c2.75-3.05,6.34-5.08,9.81-6.82s7.42-3.56,11.62-5.33l1.51-.65c3.42-1.48,7-3,10.61-3H119a12.12,12.12,0,0,1,4.23.85,1.84,1.84,0,0,1-.1-1.87,2.41,2.41,0,0,1,2.07-1.38,1.82,1.82,0,0,1,.91.24,19.74,19.74,0,0,1,2.37,1.52,2.36,2.36,0,0,1,.8-.13,2.14,2.14,0,0,1,1.41.49,2.46,2.46,0,0,1,1.47-.5,2,2,0,0,1,1.71.93c1.14,1.88,2.22,3.91,1.83,6.13a5,5,0,0,1-3.49,4.05,4.54,4.54,0,0,1-1.13.14h0a8.32,8.32,0,0,1-2.46-.44,9.21,9.21,0,0,1-1.35.27,11.23,11.23,0,0,1-1.34.08c-.85,0-1.72-.08-2.56-.16l-1.09-.09c-.38,0-.77,0-1.16,0a19.24,19.24,0,0,0-5,.7,84.48,84.48,0,0,0-11.84,4.48l-.73.32c-3.68,1.61-7.58,3.35-11.32,5.41-3,1.66-5.93,3.6-7,6.58A2.43,2.43,0,0,1,83.06,166.16Z"/><path d="M133.79,137.15a2.05,2.05,0,0,0-3.08-.33,2.17,2.17,0,0,0-2.23-.38,20.13,20.13,0,0,0-2.4-1.56c-1.75-.95-3.93,1.39-2.62,3l.14.18a12.2,12.2,0,0,0-4.58-1c-4.25-.07-8.44,2-12.26,3.64S99,144.12,95.14,146c-3.56,1.79-7.07,3.8-9.77,6.79a15.26,15.26,0,0,0-4.2,11.38c.22,2.47,3.36,2.35,4.07.27,1.07-3.14,4.25-5.13,7-6.64,3.66-2,7.51-3.75,11.34-5.42a90.17,90.17,0,0,1,12.57-4.81,18.6,18.6,0,0,1,6.16-.65,25.73,25.73,0,0,0,5,.17,8.75,8.75,0,0,0,1.37-.28,6.45,6.45,0,0,0,3.56.31,4.84,4.84,0,0,0,3.4-4C136,141,134.88,139,133.79,137.15Z"/><path d="M138.83,164.71a2.34,2.34,0,0,1-1.61-.74,1.75,1.75,0,0,1-.53-1.31,9.17,9.17,0,0,0-.06-1.67l0-.25h0v0h0a.08.08,0,0,0,0,0l0-.12c-.07-.27-.14-.53-.23-.8s-.17-.47-.27-.71c0-.08-.09-.22-.13-.31l-.06-.1a10.44,10.44,0,0,0-.88-1.35l-.2-.26-.09-.1-.16-.17c-.14-.15-.29-.29-.44-.43s-.38-.34-.58-.5l-.28-.21-.09-.06a12,12,0,0,0-1.41-.75l-.29-.12h0l-.14,0c-.27-.07-.54-.14-.81-.19a2.19,2.19,0,0,1-.29-4.19l1.19-.41a2.16,2.16,0,0,1,.71-.12,2.24,2.24,0,0,1,2,1.42A12.3,12.3,0,0,1,141,162.39a2.25,2.25,0,0,1-2,2.31Z"/><path d="M134.06,151.24v0a2.09,2.09,0,0,0-2.62-1.25l-1.19.41a2.07,2.07,0,0,0,.27,4,8.34,8.34,0,0,1,.83.2l.15,0,.29.12a13.7,13.7,0,0,1,1.42.74l0,0,.37.28c.2.16.4.32.59.5l.59.59,0,0,.29.36a11,11,0,0,1,.88,1.37l.07.11.13.32a7.66,7.66,0,0,1,.27.72c.09.26.17.53.24.8h0v0c0,.17,0,.2,0,.18s.05.23.05.25a9.67,9.67,0,0,1,.06,1.7,2.06,2.06,0,0,0,2.19,1.91,2.13,2.13,0,0,0,1.91-2.19A12.12,12.12,0,0,0,134.06,151.24Z"/><path d="M136.6,160.78a.4.4,0,0,1,0-.32l.14-.23.08.26c0,.07,0,.11,0,.21Z"/><path d="M136.68,160.54h0a.27.27,0,0,0,0,.2C136.69,160.63,136.68,160.56,136.68,160.54Z"/><path d="M139.61,187a2.43,2.43,0,0,1-1.49-.52,2.21,2.21,0,0,1-.22-3.06,14.21,14.21,0,0,1,7.48-5,2.72,2.72,0,0,1,.69-.09,2.18,2.18,0,0,1,2.07,1.42,2.15,2.15,0,0,1-.12,1.73,2,2,0,0,1-1.22,1,12.87,12.87,0,0,0-2.1.78,12.33,12.33,0,0,0-2,1.3l-.21.18-.47.47a11.73,11.73,0,0,0-.85,1,1.94,1.94,0,0,1-1.58.74Z"/><path d="M148,179.81a2.1,2.1,0,0,0-2.62-1.26,14,14,0,0,0-7.41,4.93,2.05,2.05,0,1,0,3.09,2.7c.27-.35.56-.68.86-1,.15-.16.31-.31.47-.46h0l.21-.18a10.23,10.23,0,0,1,4.13-2.1A2.07,2.07,0,0,0,148,179.81Z"/><path d="M162.38,253.1a2.17,2.17,0,0,1-.36,0,2,2,0,0,1-1.28-.81,2.38,2.38,0,0,1-.42-1.75c0-.13,0-.25,0-.37V250a8.43,8.43,0,0,0-.11-1.65,8.54,8.54,0,0,0-.56-1.61c-.13-.22-.25-.44-.39-.65a2.14,2.14,0,0,1,0-2.34c-.4,0-.79,0-1.18,0a15.6,15.6,0,0,1-4.2-.55,19.51,19.51,0,0,1-2.49-.92,11.21,11.21,0,0,0-4.28-1.17,5.26,5.26,0,0,0-1.05.1,20.52,20.52,0,0,0-3.67,1.22l-1.1.44-4.45,1.71c-.85.32-1.69.67-2.54,1-1.91.77-3.89,1.57-5.88,2.17l-.52.14a2.47,2.47,0,0,1-.23.23,2.26,2.26,0,0,1-2,1.49,1.75,1.75,0,0,1-.67-.14,3.52,3.52,0,0,1-.56,0,3.64,3.64,0,0,1-1.18-.19,5.46,5.46,0,0,1-2.14-1.48,9.73,9.73,0,0,1-1.5-1.95,2.2,2.2,0,0,1,1.07-3.26,2.64,2.64,0,0,1,1.1-.23,4.22,4.22,0,0,1,1.62.36,4.44,4.44,0,0,1,.65.34l.07-.08a4.12,4.12,0,0,1,.4-.33l.07,0a1.85,1.85,0,0,1,.47-.54l.06-.1,13.35-14.58,1-1.12a26.76,26.76,0,0,1,3.49-3.49.16.16,0,0,1,0-.07,1.54,1.54,0,0,1,.62-.47l.08,0,.24-.1.07,0,.12-.07a4.42,4.42,0,0,1,.74-.62,6.21,6.21,0,0,1,.84-.45,2.14,2.14,0,0,1,.42-.15,4.94,4.94,0,0,1,1.19-.17,4.08,4.08,0,0,1,.68.06,1.86,1.86,0,0,1,.57.2h.1a34.9,34.9,0,0,1,5.38,2l.62.27c1.5.66,3,1.35,4.55,2.06l.17.1a12.27,12.27,0,0,0,4.62,1h.15a6.11,6.11,0,0,0,4.19-1.68c.27-.24.53-.49.8-.75a13.7,13.7,0,0,1,3-2.34,7.36,7.36,0,0,1,3.43-.83c2.14,0,4.46.82,7.31,2.58l.16.09a55.4,55.4,0,0,1,9.3,6.66,12.25,12.25,0,0,1,4,6.74c.3.08.6.17.9.28l.42.14.8.28.19.07a2.18,2.18,0,0,1,1.48-.56,2.4,2.4,0,0,1,2.06,1.14,1.84,1.84,0,0,1-.08,1.9A3.54,3.54,0,0,1,199,242l-.39,0a8.69,8.69,0,0,1-2.16-.56c-.33-.12-.66-.24-1-.34a2.15,2.15,0,0,1-1.13.31,2.62,2.62,0,0,1-.87-.16c-.27.1-.54.23-.8.35a9.49,9.49,0,0,1-1.1.46,16.66,16.66,0,0,1-4.71.83h-.43a17.17,17.17,0,0,1-7.76-1.88l-.75-.39a8.32,8.32,0,0,0-3-1.16h-.34a8.42,8.42,0,0,0-3.13.86l-.26.11a49,49,0,0,1-8.54,2.86,1.74,1.74,0,0,1,.31.36,10.66,10.66,0,0,1,1.69,7.71A2.17,2.17,0,0,1,162.38,253.1Zm-14.46-27.8a2.57,2.57,0,0,0-1.12.31v0l-.08.09a4.32,4.32,0,0,1-.74.64,4,4,0,0,1-.64.34.76.76,0,0,1-.2.06c-.16.16-.35.34-.48.48-1.23,1.25-2.42,2.58-3.58,3.87l-1.62,1.79-8.57,9.37,9.8-3.77a19.08,19.08,0,0,1,6.73-1.7,8.66,8.66,0,0,1,1.15.07,15.52,15.52,0,0,1,3.93,1.24,16.79,16.79,0,0,0,3.55,1.17,12.91,12.91,0,0,0,2.09.17,19.66,19.66,0,0,0,5.56-.9,38.72,38.72,0,0,0,4-1.49c1.27-.52,2.59-1.06,3.93-1.46a9.47,9.47,0,0,1,2.7-.41,11.24,11.24,0,0,1,5.12,1.37,14.74,14.74,0,0,0,6.76,2h.1a12.36,12.36,0,0,0,3.77-.6c.47-.15.93-.35,1.38-.54l.55-.23c-.61-2.85-3.87-5.09-6.26-6.73l-.64-.44a55.85,55.85,0,0,0-5.89-3.74,8.1,8.1,0,0,0-3.56-1.13,3.35,3.35,0,0,0-1.74.46,12.49,12.49,0,0,0-2.2,1.84,12.61,12.61,0,0,1-2.15,1.83,10.25,10.25,0,0,1-5.47,1.46c-.35,0-.71,0-1.06-.05a17.3,17.3,0,0,1-5.3-1.37,1.89,1.89,0,0,1-.44-.14c-.84-.4-1.68-.78-2.53-1.16h-.08l-.13-.09-2.26-1c-.81-.36-1.54-.68-2.3-1l-.67-.26-.28-.1c-.3-.1-.61-.18-.92-.27A1,1,0,0,0,147.92,225.3Z"/><path d="M198.71,237.8a2,2,0,0,1-.27-.1c-.39-.16-.81-.28-1.22-.42s-.64-.21-1-.3a12.16,12.16,0,0,0-4-6.74,56.63,56.63,0,0,0-9.44-6.74c-3.16-1.95-7-3.61-10.62-1.74a19.13,19.13,0,0,0-3.76,3.07,6.22,6.22,0,0,1-4.27,1.71,12.26,12.26,0,0,1-4.79-1,2.12,2.12,0,0,0-.2-.12c-1.71-.81-3.44-1.57-5.17-2.33a34.16,34.16,0,0,0-5.36-2,.59.59,0,0,0-.13,0,1.68,1.68,0,0,0-.53-.19,4.31,4.31,0,0,0-1.82.11,1.9,1.9,0,0,0-.4.14,5.85,5.85,0,0,0-.82.44,5,5,0,0,0-.75.63c-.07,0-.13.08-.19.11l-.24.1a1.55,1.55,0,0,0-.67.5l0,.07a37.29,37.29,0,0,0-4.47,4.6l-13.35,14.58a1.05,1.05,0,0,1-.07.11,2.24,2.24,0,0,0-.48.54,5.32,5.32,0,0,0-.45.38.88.88,0,0,0-.12.15,7.33,7.33,0,0,0-.73-.39,3.34,3.34,0,0,0-2.63-.13,2.08,2.08,0,0,0-1,3.09,10.35,10.35,0,0,0,1.49,1.93,5.38,5.38,0,0,0,2.09,1.44,3.61,3.61,0,0,0,1.72.15,2,2,0,0,0,2.54-1.31l.25-.26c.18,0,.37-.09.55-.15,2.85-.85,5.62-2.11,8.4-3.17l4.46-1.71a29.23,29.23,0,0,1,4.79-1.67c2.84-.56,5.24,1.28,7.87,2a16.53,16.53,0,0,0,5.59.48,2,2,0,0,0-.1,2.41c.14.22.27.44.4.67a9.36,9.36,0,0,1,.57,1.64,9.5,9.5,0,0,1,.12,1.68l-.06.5a2.06,2.06,0,1,0,4,.82,10.59,10.59,0,0,0-1.67-7.62,1.76,1.76,0,0,0-.49-.49,48.24,48.24,0,0,0,8.77-2.91,8.18,8.18,0,0,1,3.79-1,11.3,11.3,0,0,1,3.83,1.56,17.15,17.15,0,0,0,8.13,1.87,16.55,16.55,0,0,0,4.68-.82c.64-.22,1.28-.58,1.94-.83a2.16,2.16,0,0,0,2-.15,16.23,16.23,0,0,0,3.18.91,3.39,3.39,0,0,0,3.42-1.82C203.29,238,200.26,236.29,198.71,237.8Zm-8.56.29a12.64,12.64,0,0,1-3.81.6,14.74,14.74,0,0,1-6.92-2,10,10,0,0,0-7.73-1c-2.71.81-5.23,2.17-7.95,3a17.55,17.55,0,0,1-7.71.73c-2.61-.44-4.84-2.07-7.47-2.41-3-.38-5.73.82-8.43,1.86l-9.37,3.6-.31.12,8.92-9.75c1.73-1.89,3.41-3.83,5.2-5.67.13-.13.32-.31.54-.5l.18-.06a5.41,5.41,0,0,0,.63-.33,3.86,3.86,0,0,0,.71-.63l.12-.13a2.4,2.4,0,0,1,1.43-.3h0l.93.28.29.1.66.26c.78.31,1.55.64,2.31,1l2.29,1,.09.06.09,0c.85.38,1.69.76,2.53,1.16a2.16,2.16,0,0,0,.43.14,17.21,17.21,0,0,0,5.27,1.36,10.43,10.43,0,0,0,6.46-1.4c1.62-1,2.72-2.69,4.35-3.66s3.77-.2,5.42.67a55.86,55.86,0,0,1,5.9,3.74c2.37,1.65,6.36,4.13,7,7.34C191.51,237.55,190.84,237.86,190.15,238.09Z"/><path d="M158.67,266.88a11.57,11.57,0,0,1-4.76-1.38c-2.43-1.13-4.94-2.35-7.46-3.61-4.69-2.35-9.47-4.9-14.2-7.57a2.15,2.15,0,0,1-1-2.5,2.13,2.13,0,0,1,1.95-1.69,2.09,2.09,0,0,1,1,.29c5.07,2.86,10.21,5.59,15.28,8.11,1.86.92,4.31,2.12,6.81,3.28l.29.13a4.88,4.88,0,0,0,2,.62,2,2,0,0,0,.34,0,3.79,3.79,0,0,0,1.69-1l1-.93a12.12,12.12,0,0,1,3.49-2.62,8,8,0,0,1,3.29-.63,16.48,16.48,0,0,1,3.1.34l1,.21a15.43,15.43,0,0,0,3.23.46,6,6,0,0,0,1.83-.27,25.73,25.73,0,0,0,6-3.25l.25-.17a52.56,52.56,0,0,0,10.14-8.81,2,2,0,0,1,1.54-.73,2.4,2.4,0,0,1,2.12,1.41,2,2,0,0,1-.38,2.18,56.78,56.78,0,0,1-12.64,10.62l-.07,0a21.1,21.1,0,0,1-7,3.18,9.27,9.27,0,0,1-1.7.15,21.59,21.59,0,0,1-4.31-.58l-.92-.18a10.91,10.91,0,0,0-2-.22,4.59,4.59,0,0,0-3.25,1.23c-.35.31-.68.63-1,1a10.62,10.62,0,0,1-3.7,2.66A5.5,5.5,0,0,1,158.67,266.88Z"/><path d="M194,245.9a52.46,52.46,0,0,1-10.16,8.83,26.69,26.69,0,0,1-6.26,3.43c-2,.66-4.12,0-6.15-.39a10.61,10.61,0,0,0-6.31.28c-1.8.78-3,2.25-4.46,3.53a4,4,0,0,1-1.75,1.07,4.81,4.81,0,0,1-2.67-.73c-2.29-1.06-4.55-2.16-6.81-3.28q-7.75-3.84-15.29-8.11c-2.3-1.3-4.12,2.39-1.82,3.68q7,4,14.19,7.57,3.7,1.86,7.46,3.61c2.09,1,4.31,1.87,6.61,1,1.93-.69,3.2-2.28,4.68-3.6,1.63-1.45,3.3-1.43,5.36-1,2.26.44,4.56,1,6.87.61a21,21,0,0,0,7-3.21,56.43,56.43,0,0,0,12.62-10.59C198.85,246.62,195.75,243.93,194,245.9Z"/><path d="M169.87,163.92a2.29,2.29,0,0,1-2.07-1.65,2,2,0,0,1,.82-2.34c2.93-2,6.61-2.79,10.17-3.53,1-.2,1.9-.39,2.82-.61l2-.49c1.66-.41,3.38-.83,5.08-1.17a13.15,13.15,0,0,1,2.49-.21c.62,0,1.26,0,1.87.06s1.25.05,1.88.05c.34,0,.69,0,1,0h.17a2.09,2.09,0,0,1,2.09,2.13,2,2,0,0,1-2,2.21c-.29,0-.59,0-.88,0-.66,0-1.32,0-2-.07s-1.29-.08-1.93-.08a11,11,0,0,0-2,.16c-1.49.27-3,.65-4.45,1l-2,.51-2.16.51-4.43,1.06a15.43,15.43,0,0,0-5.36,2A2,2,0,0,1,169.87,163.92Z"/><path d="M196,154.12c-2.45.16-4.81-.35-7.26.13s-4.73,1.1-7.1,1.66c-4.27,1-9.24,1.56-12.94,4.12-2.17,1.5.13,4.9,2.32,3.39a15.62,15.62,0,0,1,5.39-2.06l6.6-1.57c2.15-.51,4.3-1.13,6.48-1.53s4.52.11,6.79,0C198.91,158.06,198.63,154,196,154.12Z"/><path d="M176.35,212.81a2.23,2.23,0,0,1-2.22-2.3,1.92,1.92,0,0,1,2-2,11.32,11.32,0,0,0,7.43-2.74c1.62-1.42,3-3.68,2-5.73-.85-1.83-2.84-3-5.92-3.56a21.37,21.37,0,0,0-2.26-.24l-.91-.07-.12,0a2.91,2.91,0,0,0-.51,0H175l-.35,0c-.28,0-.56-.05-.84-.05h-.09a2.3,2.3,0,0,1-.54-.19,2.55,2.55,0,0,1-1-.86,3.19,3.19,0,0,1-.21-.41c0-.54,0-1,.06-1.53v-.22l0,0,0-.07v-.38l0-.44a8.34,8.34,0,0,0-.07-1.25,5.43,5.43,0,0,0-.17-.61l0-.07c0-.13,0-.26,0-.38l0-.2a6.49,6.49,0,0,0-.26-.74c-.09-.23-.19-.44-.29-.66a3.3,3.3,0,0,1-.19-.32l-.09-.15c-.24-.4-.52-.8-.84-1.23a17.93,17.93,0,0,0-1.85-2.05l-.27-.27a21.19,21.19,0,0,0-2.15-2,1.91,1.91,0,0,1-.72-1.3,2.44,2.44,0,0,1,.5-1.77,2,2,0,0,1,1.57-.73,2.47,2.47,0,0,1,1.5.51,22.84,22.84,0,0,1,2.39,2.22l.26.26a29.64,29.64,0,0,1,2.48,2.81,12.56,12.56,0,0,1,2.4,5.49,1.09,1.09,0,0,1,.15.18l.24.48a3.21,3.21,0,0,1,.14.48l0,.13a5.75,5.75,0,0,1,.14.83l0,.16.06.15h.15c.45,0,.9.06,1.36.11.93.09,1.68.19,2.36.32a14,14,0,0,1,4.47,1.57c3.09,1.81,4.92,4.64,4.92,7.59,0,3.14-1.65,6.08-4.64,8.28a16.51,16.51,0,0,1-9.22,3.15Z"/><path d="M185.26,193.9a13.75,13.75,0,0,0-4.44-1.56c-.77-.15-1.56-.24-2.35-.32l-1.35-.11h-.23c0-.12-.09-.23-.13-.34v-.08a6,6,0,0,0-.17-.94,2.32,2.32,0,0,0-.13-.45l-.24-.48a1.39,1.39,0,0,0-.15-.19,12.21,12.21,0,0,0-2.39-5.46,26.31,26.31,0,0,0-2.47-2.8,25.65,25.65,0,0,0-2.63-2.48,2.06,2.06,0,0,0-2.7,3.1A25.8,25.8,0,0,1,168.3,184a19.06,19.06,0,0,1,1.86,2.07,13.06,13.06,0,0,1,.86,1.24l.28.48c.1.22.2.44.29.66s.19.5.27.76a2.16,2.16,0,0,1,0,.24,2.17,2.17,0,0,0,0,.36v0a4.4,4.4,0,0,1,.18.62,6.3,6.3,0,0,1,.05,1.23l0,0,0,.88,0,.08c0,.56-.07,1.12-.08,1.68a2.38,2.38,0,0,0,.2.39,2.53,2.53,0,0,0,1,.83,3.2,3.2,0,0,0,.52.18,10.67,10.67,0,0,1,1.26.09h.86a3.51,3.51,0,0,1,.56,0l.11,0c1.06.1,2.13.13,3.18.31,2.31.4,4.94,1.34,6,3.63s-.47,4.46-2.07,5.87a11.47,11.47,0,0,1-7.51,2.78c-2.65,0-2.35,4.13.28,4.1,6.1-.07,13.73-4.49,13.74-11.31C190.12,198.16,187.93,195.46,185.26,193.9Z"/><path d="M176.27,287.6a2.52,2.52,0,0,1-1.91-1,2.15,2.15,0,0,1,.34-2.81v0l.25-.22.29-.28c.17-.17.34-.35.5-.53.3-.34.59-.7.86-1.06l.11-.16.1-.14c.12-.21.25-.41.37-.63.22-.39.43-.81.61-1.22.1-.23.19-.45.27-.68l.1-.27.13,0-.11,0a14.51,14.51,0,0,0,.35-1.41c.09-.5.15-1,.19-1.36v-.34q0-.36,0-.72a2.23,2.23,0,0,1,2-2.32h.2a2.21,2.21,0,0,1,2.12,2,16.27,16.27,0,0,1-5.68,12.76,1.69,1.69,0,0,1-1.12.4Z"/><path d="M180.76,272.53a2.1,2.1,0,0,0-1.91,2.19c0,.25,0,.49,0,.74s0,.21,0,.31v0c-.05.46-.1.92-.19,1.37a14.06,14.06,0,0,1-.36,1.42l0,.07-.09.28c-.09.22-.18.45-.28.67a13,13,0,0,1-.62,1.24c-.12.22-.24.43-.37.63a1.28,1.28,0,0,0-.1.15l-.11.16a12.7,12.7,0,0,1-.87,1.07c-.17.18-.33.36-.51.53l-.29.29c-.07.06-.37.32,0,0a2.1,2.1,0,0,0-.54,2.85,2.07,2.07,0,0,0,2.85.55A16.13,16.13,0,0,0,183,274.44,2.08,2.08,0,0,0,180.76,272.53Z"/><path d="M120.53,232.51a2.36,2.36,0,0,1-1-.2,2.15,2.15,0,0,1-1.09-1.23,2.28,2.28,0,0,1,.1-1.67,32.8,32.8,0,0,1,4.38-7.84,1.89,1.89,0,0,1,1.57-.74,2.43,2.43,0,0,1,1.5.51,2.22,2.22,0,0,1,.75,1.5,2.3,2.3,0,0,1-.53,1.57c-.21.28-.42.57-.62.86l-.14.21-.06.09-.17.26c-.36.56-.71,1.14-1,1.73a32.32,32.32,0,0,0-1.75,3.76A2,2,0,0,1,120.53,232.51Z"/><path d="M126,221.44a2.08,2.08,0,0,0-2.9.2,32.57,32.57,0,0,0-4.37,7.81,2.18,2.18,0,0,0-.1,1.59,2.06,2.06,0,0,0,3.78.23,33,33,0,0,1,1.75-3.77c.33-.59.67-1.17,1-1.73,0-.09.11-.18.17-.27l0-.07.06-.09a.43.43,0,0,1,0,.07c0-.07.09-.14.14-.2q.3-.45.63-.87a2.21,2.21,0,0,0,.5-1.49A2.11,2.11,0,0,0,126,221.44Z"/><polygon points="125.23 225.44 125.27 225.37 125.49 225.47 125.44 225.56 125.23 225.44"/><path d="M125.37,225.43l0,.07.06-.09h0Z"/><path d="M197.84,220.9a2.25,2.25,0,0,1-1.85-1l-4.35-6.35a2.23,2.23,0,0,1,.57-3,2,2,0,0,1,1.18-.38,2.27,2.27,0,0,1,1.85,1l4.35,6.35a2.21,2.21,0,0,1-.57,3,1.94,1.94,0,0,1-1.18.38Z"/><path d="M199.49,217.57l-4.35-6.35a2.06,2.06,0,0,0-3.4,2.32l4.35,6.34a2.06,2.06,0,0,0,3.4-2.31Z"/></g></g></svg>