<svg width="400px" height="60px"  xmlns="http://www.w3.org/2000/svg" viewBox="0 0 282.18 38"><g id="Layer_2" data-name="Layer 2"><g id="Layer_1-2" data-name="Layer 1"><path d="M21.34,17.45A22.37,22.37,0,0,1,25.93,19a10.68,10.68,0,0,1,3,2A6.64,6.64,0,0,1,30.5,23.5,8.54,8.54,0,0,1,31,26.41a9.22,9.22,0,0,1-1.09,4.45,9.84,9.84,0,0,1-3.19,3.41,16.39,16.39,0,0,1-5,2.18,26.46,26.46,0,0,1-6.56.78H.16L0,36.77,5.07,33.7V4.25L0,1.25.16.8H13.25a42,42,0,0,1,7.64.59,15,15,0,0,1,5,1.7,6.94,6.94,0,0,1,2.73,2.73,7.54,7.54,0,0,1,.84,3.61,6.42,6.42,0,0,1-2.09,4.64A15.39,15.39,0,0,1,21.34,17.45Zm-1-.2a16.09,16.09,0,0,0,6.48-3.34A6.13,6.13,0,0,0,29,9.43a7,7,0,0,0-.78-3.34,6,6,0,0,0-2.59-2.54,15.24,15.24,0,0,0-4.84-1.64,37.13,37.13,0,0,0-7.52-.61H1.09L5.5,3.91l.09.2V33.89l-.09.2L1.09,36.7H15.16A25.61,25.61,0,0,0,21.61,36a15.15,15.15,0,0,0,4.84-2.09,9.55,9.55,0,0,0,3-3.25,8.88,8.88,0,0,0,.57-7,6.66,6.66,0,0,0-1.66-2.41,11.28,11.28,0,0,0-3.12-1.95,24.85,24.85,0,0,0-4.91-1.46v-.52ZM10.43,2.32H13a18.31,18.31,0,0,1,5,.57,10,10,0,0,1,3.39,1.54,6.19,6.19,0,0,1,1.91,2.32,7.06,7.06,0,0,1,.61,2.93A6.79,6.79,0,0,1,23.07,13a7.14,7.14,0,0,1-2.21,2.41,9.48,9.48,0,0,1-3.41,1.45,18.83,18.83,0,0,1-4.4.48H10.43l-.25-.25V2.57Zm0,33.34-.25-.25V18.64l.25-.25h2.66q6.24,0,9.21,2.25a7.34,7.34,0,0,1,2.95,6.18q0,4.56-3.14,6.7C20,35,17.18,35.68,13.59,35.68H10.43Zm.27-18.82h2.41A13.55,13.55,0,0,0,20.64,15a6,6,0,0,0,2.75-5.34A6.79,6.79,0,0,0,22.84,7a5.39,5.39,0,0,0-1.77-2.18,9.13,9.13,0,0,0-3.23-1.43A19.89,19.89,0,0,0,13,2.84H10.7Zm2.91,18.3c3.55,0,6.3-.69,8.23-2s2.91-3.45,2.91-6.31A6.91,6.91,0,0,0,22,21c-1.86-1.43-4.81-2.16-8.86-2.16H10.7V35.11h2.91Z"/><path d="M57.18,28.3a34.57,34.57,0,0,0,2.73,3.52,22.26,22.26,0,0,0,2.52,2.41,14.29,14.29,0,0,0,2.41,1.57,12.58,12.58,0,0,0,2.3.88v.5a13.3,13.3,0,0,1-3.89.62,11.44,11.44,0,0,1-5.7-1.6,17.26,17.26,0,0,1-5.5-5.31L44.68,20.66h-1v13l5.16,3-.16.45H33.16L33,36.73l5.07-3V4.25l-5-3L33.2.8h15A28.82,28.82,0,0,1,55,1.52a15.1,15.1,0,0,1,4.75,2,8.28,8.28,0,0,1,2.8,3,8.44,8.44,0,0,1,.88,3.82,8,8,0,0,1-2.84,6.21c-1.88,1.68-4.84,3-8.81,3.86Zm-6-7.94.16-.41c4.09-.84,7-2.09,8.87-3.72A7.7,7.7,0,0,0,63,10.3a7.75,7.75,0,0,0-.84-3.6,7.6,7.6,0,0,0-2.63-2.84A14.73,14.73,0,0,0,54.91,2a28.37,28.37,0,0,0-6.73-.68H34.11l4.41,2.61.09.2V33.89l-.09.2L34.11,36.7H47.77l-4.45-2.61-.12-.2V20.43l.25-.25h1.39l.21.12,7.4,10.31a17.5,17.5,0,0,0,5.37,5.19,11.06,11.06,0,0,0,5.43,1.5,12.35,12.35,0,0,0,3-.37,15.84,15.84,0,0,1-4.54-2.66,25.49,25.49,0,0,1-4.91-5.68Zm-8-1.68V2.77l.25-.25h2.91c3.54,0,6.31.75,8.34,2.25a7.33,7.33,0,0,1,3,6.18,6.9,6.9,0,0,1-2.77,6c-1.84,1.34-4.59,2-8.28,2H43.48Zm3.47-.27q5.43,0,8-1.91A6.5,6.5,0,0,0,57.23,11a6.87,6.87,0,0,0-2.82-5.77C52.52,3.75,49.86,3,46.39,3H43.73V18.41Z"/><path d="M73.8,33.7V4.25l-5.07-3L68.89.8H84.43l.16.45-5.07,3V33.73l5.07,3-.16.45H68.89l-.16-.45Zm9.72,3-4.38-2.61L79,33.86V4.09l.12-.2,4.38-2.62H69.82l4.41,2.62.09.2V33.86l-.09.21-4.41,2.61Z"/><path d="M93.18,33.2V4.25l-5.07-3L88.27.8h15.55l.16.45-5.07,3V34.86h11.66l6-9.11.46.16v11l-.25.25H88.27l-.16-.45Zm23.37,3.48V26.75l-5.64,8.5-.21.11H98.64l-.25-.25v-31l.09-.2,4.41-2.62H89.18l4.41,2.62.09.2V33.34l-.09.21-4.5,3.11h27.46Z"/><path d="M125.25,33.2V4.25l-5.07-3,.16-.45h15.55l.16.45-5.07,3V34.84h11.66l6-9.11.46.16v11l-.25.25H120.34l-.16-.45Zm23.36,3.48V26.75L143,35.25l-.21.11H130.7l-.25-.25v-31l.1-.2L135,1.27h-13.7l4.41,2.62.09.2V33.34l-.09.21-4.5,3.11h27.45Z"/><path d="M157.25,33.7V4.25l-5.07-3,.16-.45h15.55l.16.45-5.07,3V33.73l5.07,3-.16.45H152.34l-.16-.45Zm9.73,3-4.41-2.61-.12-.21V4.09l.12-.2L167,1.27h-13.7l4.41,2.62.09.2V33.86l-.09.21-4.41,2.61Z"/><path d="M196.68,33.82l-2.75-6.91H180l-2.66,6.59,5.44,3.23-.16.45h-14l-.16-.45,5.41-3.23L188.57,0h.5l14,33.75,5.41,3-.11.46h-17l-.11-.46Zm10.73,2.86-4.59-2.5-.16-.09L188.8.8l-14.48,33-.12.11-4.7,2.82h12.16l-4.77-2.86-.12-.32,2.82-6.95.25-.16h14.21l.25.16,2.9,7.27-.15.29-4.6,2.55h15Zm-27-12.27,6.23-15.59h.5l6.25,15.59-.25.36H180.7Zm12.39-.16L187,9.57l-5.88,14.68Z"/><path d="M248.36.77l.16.46L242.39,5V37.84l-.46.16L217.64,9.77V32.93l5.84,3.77-.16.46h-14l-.16-.46,5.52-3.77V6.8l-5.79-5.55.16-.45h8.29l.21.11,21.88,25.36V5l-6-3.77.16-.45h14.81Zm-8.52,3.89.11.2V26.91l-.45.16L217.23,1.3h-7.57l5.41,5.22.11.21V33.11l-.11.21-5,3.36h12.32l-5.2-3.38-.12-.21v-24l.46-.16,24.32,28.23V4.86l.11-.2,5.48-3.39h-13Z"/><path d="M263.3,33.7V3.34h-6.23l-6.46,8.43-.45-.2L251.55,1l.25-.21h28.75l.25.21,1.38,10.59-.45.2L275.3,3.34h-6.25V33.73l5.56,3-.11.45H257.84l-.11-.45Zm10.18,3-4.82-2.61-.16-.21V3.07l.25-.25h6.59l.21.11,6,7.77L280.3,1.3H252l-1.22,9.4,6-7.77.21-.11h6.59l.25.25V33.86l-.16.21-4.79,2.61Z"/></g></g></svg>