<?xml version="1.0" encoding="utf-8"?>
<!-- Generator: Adobe Illustrator 25.2.3, SVG Export Plug-In . SVG Version: 6.00 Build 0)  -->
<svg width="400px" height="60px" version="1.1" id="Layer_1" xmlns="http://www.w3.org/2000/svg" xmlns:xlink="http://www.w3.org/1999/xlink" x="0px" y="0px"
	 viewBox="0 0 1263 264" style="enable-background:new 0 0 1263 264;" xml:space="preserve">
<g>
	<path d="M104.6,126.3c8.1,2,14.9,4.2,20.2,6.9c5.4,2.6,9.7,5.6,13,8.9c3.3,3.3,5.7,6.9,7.1,10.8c1.4,3.9,2.1,8.2,2.1,12.8
		c0,7.2-1.6,13.7-4.8,19.6c-3.2,5.9-7.9,10.8-14,15c-6.1,4.1-13.4,7.3-22,9.6c-8.6,2.2-18.3,3.4-28.9,3.4H11.4l-0.7-2L33,197.8V68.2
		L10.7,55l0.7-2H69c13.3,0,24.6,0.9,33.6,2.6c9.1,1.7,16.4,4.2,21.9,7.5c5.5,3.3,9.6,7.3,12,12c2.5,4.7,3.7,10,3.7,15.9
		c0,7.5-3.1,14.3-9.2,20.4C125,117.4,116.1,122.4,104.6,126.3z M100.1,125.4c12.6-3.7,22.1-8.7,28.5-14.7c6.4-6.1,9.6-12.6,9.6-19.7
		c0-5.4-1.1-10.3-3.4-14.7c-2.2-4.4-6-8.2-11.4-11.2c-5.3-3.1-12.4-5.5-21.3-7.2C93.2,56,82.2,55.2,69,55.2H15.5l19.4,11.5l0.4,0.9
		v131l-0.4,0.9l-19.4,11.5h61.9c10.5,0,19.9-1.1,28.4-3.3c8.4-2.2,15.5-5.2,21.3-9.2c5.8-4,10.2-8.7,13.3-14.3
		c3.1-5.5,4.6-11.7,4.6-18.4c0-4.5-0.7-8.7-2.1-12.5c-1.4-3.8-3.9-7.3-7.3-10.6c-3.5-3.2-8-6.1-13.7-8.6c-5.7-2.5-12.9-4.6-21.6-6.4
		V125.4z M56.6,59.7h11.2c8.6,0,15.9,0.8,21.9,2.5c6.1,1.7,11,3.9,14.9,6.8c3.8,2.9,6.6,6.3,8.4,10.2c1.8,4,2.7,8.3,2.7,12.9
		c0,5.6-1.2,10.4-3.5,14.6c-2.3,4.2-5.6,7.7-9.7,10.6c-4.1,2.9-9.1,5-15,6.4c-5.9,1.4-12.3,2.1-19.4,2.1H56.6l-1.1-1.1V60.8
		L56.6,59.7z M56.6,206.4l-1.1-1.1v-73.8l1.1-1.1h11.7c18.3,0,31.8,3.3,40.5,9.9c8.7,6.6,13,15.7,13,27.2c0,13.4-4.6,23.2-13.8,29.5
		s-21.7,9.5-37.5,9.5H56.6z M57.8,123.6h10.6c14,0,25-2.7,33.1-8c8.1-5.3,12.1-13.2,12.1-23.5c0-4.3-0.8-8.4-2.4-12
		c-1.6-3.7-4.2-6.9-7.8-9.6c-3.6-2.7-8.3-4.8-14.2-6.3c-5.8-1.5-13-2.2-21.4-2.2H57.8V123.6z M70.6,204.1c15.6,0,27.7-3,36.2-8.9
		c8.5-5.9,12.8-15.2,12.8-27.8c0-10.6-4.1-19.1-12.3-25.4c-8.2-6.3-21.2-9.5-39-9.5H57.8v71.5H70.6z"/>
	<path d="M262.3,174c4.2,6.2,8.2,11.3,12,15.5c3.8,4.2,7.5,7.7,11.1,10.6c3.6,2.9,7.1,5.1,10.6,6.9c3.4,1.7,6.8,3,10.1,3.9v2.2
		c-5.9,1.8-11.6,2.7-17.1,2.7c-8.4,0-16.8-2.3-25.1-7c-8.3-4.6-16.4-12.4-24.2-23.4l-32.4-45h-4.3v57.4l22.7,13.3l-0.7,2h-68.4
		l-0.7-2l22.3-13.3V68.2L156.1,55l0.7-2h65.9c11.7,0,21.7,1.1,30.1,3.2c8.4,2.1,15.4,5,20.9,8.7c5.5,3.7,9.6,8.1,12.3,13.3
		c2.6,5.2,3.9,10.8,3.9,16.8c0,10.8-4.2,19.9-12.5,27.3c-8.3,7.4-21.3,13.1-38.8,17L262.3,174z M236,139.1l0.7-1.8
		c18-3.7,31-9.2,39-16.4c8-7.2,12-15.9,12-26.1c0-5.7-1.2-10.9-3.7-15.8c-2.5-4.8-6.3-9-11.6-12.5c-5.3-3.5-12-6.3-20.1-8.3
		c-8.2-2-18-3-29.6-3h-61.9l19.4,11.5l0.4,0.9v131l-0.4,0.9l-19.4,11.5h60.1l-19.6-11.5l-0.5-0.9v-59.2l1.1-1.1h6.1l0.9,0.5
		l32.6,45.4c7.8,10.8,15.7,18.4,23.6,22.8c7.9,4.4,15.9,6.6,23.9,6.6c4.2,0,8.5-0.5,13-1.6c-6.6-2.4-13.3-6.3-20-11.7
		c-6.8-5.4-13.9-13.7-21.6-25L236,139.1z M200.9,131.7v-70l1.1-1.1h12.8c15.6,0,27.8,3.3,36.7,9.9c8.8,6.6,13.3,15.7,13.3,27.2
		c0,11.6-4.1,20.3-12.2,26.2c-8.1,5.9-20.2,8.9-36.4,8.9H202L200.9,131.7z M216.2,130.5c15.9,0,27.6-2.8,35.1-8.4
		c7.5-5.6,11.2-13.8,11.2-24.4c0-10.6-4.1-19.1-12.4-25.4c-8.3-6.3-20-9.5-35.3-9.5h-11.7v67.7H216.2z"/>
	<path d="M335.4,197.8V68.2L313.1,55l0.7-2h68.4l0.7,2l-22.3,13.3v129.6l22.3,13.3l-0.7,2h-68.4l-0.7-2L335.4,197.8z M378.2,210.9
		l-19.3-11.5l-0.5-0.9v-131l0.5-0.9l19.3-11.5h-60.3l19.4,11.5l0.4,0.9v131l-0.4,0.9l-19.4,11.5H378.2z"/>
	<path d="M420.7,195.6V68.2L398.4,55l0.7-2h68.4l0.7,2l-22.3,13.3v134.6h51.3l26.6-40.1l2,0.7V212l-1.1,1.1H399.1l-0.7-2
		L420.7,195.6z M523.5,210.9v-43.7l-24.8,37.4l-0.9,0.5h-53.1l-1.1-1.1V67.5l0.4-0.9l19.4-11.5h-60.3l19.4,11.5l0.4,0.9v128.7
		l-0.4,0.9l-19.8,13.7H523.5z"/>
	<path d="M561.8,195.6V68.2L539.5,55l0.7-2h68.4l0.7,2L587,68.2v134.6h51.3l26.6-40.1l2,0.7V212l-1.1,1.1H540.2l-0.7-2L561.8,195.6z
		 M664.6,210.9v-43.7l-24.8,37.4l-0.9,0.5h-53.1l-1.1-1.1V67.5l0.4-0.9l19.4-11.5h-60.3l19.4,11.5l0.4,0.9v128.7l-0.4,0.9
		l-19.8,13.7H664.6z"/>
	<path d="M702.6,197.8V68.2L680.3,55l0.7-2h68.4l0.7,2l-22.3,13.3v129.6l22.3,13.3l-0.7,2H681l-0.7-2L702.6,197.8z M745.4,210.9
		L726,199.4l-0.5-0.9v-131l0.5-0.9l19.3-11.5h-60.3l19.4,11.5l0.4,0.9v131l-0.4,0.9l-19.4,11.5H745.4z"/>
	<path d="M876.1,198.3l-12.1-30.4h-61.2l-11.7,29l23.9,14.2l-0.7,2h-61.6l-0.7-2l23.8-14.2l64.6-147.4h2.2L904.4,198l23.8,13l-0.5,2
		h-74.7l-0.5-2L876.1,198.3z M923.3,210.9l-20.2-11l-0.7-0.4l-61-146.5L777.7,198l-0.5,0.5l-20.7,12.4h53.5L789,198.3l-0.5-1.4
		l12.4-30.6l1.1-0.7h62.5l1.1,0.7l12.8,32l-0.7,1.3l-20.2,11.2H923.3z M804.7,156.9l27.4-68.6h2.2l27.5,68.6l-1.1,1.6h-54.9
		L804.7,156.9z M859.2,156.2l-25.9-64.6l-25.9,64.6H859.2z"/>
	<path d="M1103.5,52.9l0.7,2l-27,16.6V216l-2,0.7L968.3,92.5v101.9l25.7,16.6l-0.7,2h-61.6l-0.7-2l24.3-16.6v-115L929.8,55l0.7-2
		H967l0.9,0.5l96.3,111.6V71.6L1037.6,55l0.7-2H1103.5z M1066,70l0.5,0.9v97l-2,0.7L966.5,55.2h-33.3l23.8,23l0.5,0.9v116.1
		l-0.5,0.9l-21.8,14.8h54.2L966.5,196l-0.5-0.9V89.6l2-0.7L1075,213.1V70.9l0.5-0.9l24.1-14.9h-57.4L1066,70z"/>
	<path d="M1169.2,197.8V64.2h-27.4l-28.4,37.1l-2-0.9l6.1-46.6l1.1-0.9h126.5l1.1,0.9l6.1,46.6l-2,0.9l-28.3-37.1h-27.5v133.7
		l24.5,13.3l-0.5,2h-73.3l-0.5-2L1169.2,197.8z M1214,210.9l-21.2-11.5l-0.7-0.9V63l1.1-1.1h29l0.9,0.5l26.3,34.2l-5.4-41.4h-124.7
		l-5.4,41.4l26.3-34.2l0.9-0.5h29l1.1,1.1v135.5l-0.7,0.9l-21.1,11.5H1214z"/>
</g>
</svg>
