<?xml version="1.0" encoding="utf-8"?>
<!-- Generator: Adobe Illustrator 25.2.3, SVG Export Plug-In . SVG Version: 6.00 Build 0)  -->
<svg width="400" height="60px" version="1.1" id="Layer_1" xmlns="http://www.w3.org/2000/svg" xmlns:xlink="http://www.w3.org/1999/xlink" x="0px" y="0px"
	 viewBox="0 0 890 264" style="enable-background:new 0 0 890 264;" xml:space="preserve">
<g>
	<path d="M187.9,52.9l0.7,2l-27,16.6V216l-2,0.7L52.7,92.5v101.9l25.6,16.6l-0.7,2H16l-0.7-2l24.3-16.6v-115L14.2,55l0.7-2h36.4
		l0.9,0.5L148.5,165V71.6L122,55l0.7-2H187.9z M150.3,70l0.5,0.9v97l-2,0.7L50.9,55.2H17.6l23.9,23l0.5,0.9v116.1l-0.5,0.9
		l-21.8,14.8h54.2L50.9,196l-0.5-0.9V89.6l2-0.7l106.9,124.2V70.9l0.5-0.9l24.1-14.9h-57.4L150.3,70z"/>
	<path d="M221.4,197.8V68.2L199.1,55l0.7-2h68.4l0.7,2l-22.3,13.3v129.6l22.3,13.3l-0.7,2h-68.4l-0.7-2L221.4,197.8z M264.1,210.9
		l-19.3-11.5l-0.5-0.9v-131l0.5-0.9l19.3-11.5h-60.3l19.4,11.5l0.4,0.9v131l-0.4,0.9l-19.4,11.5H264.1z"/>
	<path d="M343.7,215.8c-10.5,0-19.9-2-28.2-6.1c-8.3-4-15.5-9.6-21.4-16.8c-5.9-7.1-10.5-15.5-13.6-25.1c-3.1-9.6-4.7-20-4.7-31.3
		c0-12.2,1.9-23.5,5.9-34C285.5,92.2,291,83,298,75.2c7-7.8,15.5-13.9,25.3-18.3c9.8-4.4,20.6-6.6,32.3-6.6
		c21.2,0,40.5,6.8,58.1,20.2l0.4,1.4l-16.4,38.2h-2.2l-14-40c-4.5-2.8-9.2-4.9-14.1-6.2c-4.9-1.3-9.9-1.9-15-1.9
		c-7.5,0-14.4,1.6-20.8,4.7c-6.4,3.1-11.9,7.6-16.6,13.3c-4.7,5.7-8.4,12.6-11.1,20.8c-2.7,8.2-4,17.4-4,27.6
		c0,9.8,1.2,18.6,3.7,26.5c2.5,8,6.1,14.8,10.8,20.6c4.7,5.8,10.5,10.2,17.3,13.4c6.8,3.1,14.5,4.7,23.1,4.7c6.3,0,12.2-0.7,17.7-2
		c5.5-1.4,11-3.4,16.5-6.1V156l-30.4-22l0.7-2H411l1.1,1.1v81.2l-1.8,0.9l-20-19.1c-5.1,6.5-11.5,11.4-19.1,14.7
		C363.5,214.1,354.3,215.8,343.7,215.8z M343.7,213.6c10.6,0,19.7-1.7,27.1-5.2c7.4-3.4,13.5-8.3,18.3-14.6l1.6-0.2l19.1,18v-77.4
		h-47.2l28.1,20.2l0.5,0.9v30.8l-0.7,0.9c-5.8,3-11.6,5.2-17.3,6.6c-5.7,1.4-11.9,2.1-18.5,2.1c-9,0-17-1.6-24.1-5
		c-7.1-3.3-13-7.9-17.9-13.9c-4.9-6-8.6-13.1-11.2-21.4c-2.6-8.2-3.9-17.3-3.9-27.2c0-10.3,1.4-19.7,4.2-28.1
		c2.8-8.4,6.6-15.6,11.5-21.6c4.9-6,10.7-10.6,17.4-14c6.8-3.3,14-5,21.8-5c5.2,0,10.5,0.7,15.6,2.1c5.2,1.4,10.2,3.6,15,6.6
		l0.5,0.5l13,37.6l15.1-34.6c-17.1-12.9-35.8-19.4-56-19.4c-11.4,0-21.9,2.1-31.4,6.4c-9.5,4.3-17.7,10.2-24.5,17.8
		c-6.8,7.6-12.2,16.5-16,26.8c-3.8,10.3-5.7,21.3-5.7,33.2c0,11,1.5,21.1,4.6,30.5c3.1,9.4,7.5,17.5,13.2,24.4
		c5.7,6.9,12.6,12.3,20.7,16.2C324.6,211.6,333.6,213.6,343.7,213.6z"/>
	<path d="M505.9,215.8c-10.5,0-19.9-2-28.2-6.1c-8.3-4-15.5-9.6-21.4-16.8c-5.9-7.1-10.5-15.5-13.6-25.1c-3.1-9.6-4.7-20-4.7-31.3
		c0-12.2,1.9-23.5,5.9-34c3.9-10.5,9.4-19.6,16.4-27.5c7-7.8,15.5-13.9,25.3-18.3c9.8-4.4,20.6-6.6,32.3-6.6
		c21.2,0,40.5,6.8,58.1,20.2l0.4,1.4l-16.4,38.2h-2.2l-14-40c-4.5-2.8-9.2-4.9-14.1-6.2c-4.9-1.3-9.9-1.9-15-1.9
		c-7.5,0-14.4,1.6-20.8,4.7c-6.4,3.1-11.9,7.6-16.6,13.3c-4.7,5.7-8.4,12.6-11.1,20.8c-2.7,8.2-4,17.4-4,27.6
		c0,9.8,1.2,18.6,3.7,26.5c2.5,8,6.1,14.8,10.8,20.6c4.7,5.8,10.5,10.2,17.3,13.4c6.8,3.1,14.5,4.7,23.1,4.7c6.3,0,12.2-0.7,17.7-2
		c5.5-1.4,11-3.4,16.5-6.1V156l-30.4-22l0.7-2h51.8l1.1,1.1v81.2l-1.8,0.9l-20-19.1c-5.1,6.5-11.5,11.4-19.1,14.7
		S516.6,215.8,505.9,215.8z M505.9,213.6c10.6,0,19.7-1.7,27.1-5.2c7.4-3.4,13.5-8.3,18.3-14.6l1.6-0.2l19.1,18v-77.4h-47.2
		l28.1,20.2l0.5,0.9v30.8l-0.7,0.9c-5.8,3-11.6,5.2-17.3,6.6c-5.7,1.4-11.9,2.1-18.5,2.1c-9,0-17-1.6-24.1-5
		c-7.1-3.3-13-7.9-17.9-13.9c-4.9-6-8.6-13.1-11.2-21.4c-2.6-8.2-3.9-17.3-3.9-27.2c0-10.3,1.4-19.7,4.2-28.1
		c2.8-8.4,6.6-15.6,11.5-21.6c4.9-6,10.7-10.6,17.4-14c6.8-3.3,14-5,21.8-5c5.2,0,10.5,0.7,15.6,2.1c5.2,1.4,10.2,3.6,15,6.6
		l0.4,0.5l13.1,37.6l15.1-34.6c-17.1-12.9-35.8-19.4-56-19.4c-11.4,0-21.9,2.1-31.4,6.4c-9.5,4.3-17.7,10.2-24.5,17.8
		c-6.8,7.6-12.2,16.5-16,26.8c-3.8,10.3-5.7,21.3-5.7,33.2c0,11,1.5,21.1,4.6,30.5c3.1,9.4,7.5,17.5,13.2,24.4
		c5.7,6.9,12.6,12.3,20.7,16.2C486.8,211.6,495.9,213.6,505.9,213.6z"/>
	<path d="M707.7,198.3l-12.1-30.4h-61.2l-11.7,29l23.9,14.2l-0.7,2h-61.6l-0.7-2l23.8-14.2L672,49.5h2.2L736.1,198l23.8,13l-0.5,2
		h-74.7l-0.5-2L707.7,198.3z M755,210.9l-20.2-11l-0.7-0.4l-61-146.5L609.4,198l-0.5,0.5l-20.7,12.4h53.5l-21.1-12.6l-0.5-1.4
		l12.4-30.6l1.1-0.7h62.5l1.1,0.7l12.8,32l-0.7,1.3l-20.2,11.2H755z M636.4,156.9l27.4-68.6h2.2l27.5,68.6l-1.1,1.6h-54.9
		L636.4,156.9z M690.9,156.2L665,91.6l-25.9,64.6H690.9z"/>
	<path d="M824.7,215.8c-12.5,0-24.2-2.4-35.2-7.3c-11-4.9-20.4-11.2-28.2-19v-1.3l17.8-32.9h2c4.5,9.9,8.7,18.1,12.7,24.5
		c4,6.5,7.8,11.6,11.6,15.5c3.7,3.9,7.5,6.6,11.4,8.2s8,2.4,12.5,2.4c7.9,0,14-2,18.2-6.1c4.2-4,6.3-9.6,6.3-16.6
		c0-3.4-0.6-6.7-1.9-9.8c-1.3-3.1-3.4-6.2-6.4-9.3c-3-3.2-7-6.4-11.9-9.9c-5-3.4-11-7.2-18.2-11.2c-8.9-4.8-16.3-9.3-22.3-13.6
		c-6-4.3-10.9-8.4-14.6-12.4c-3.8-4-6.5-8-8.2-12c-1.7-4.1-2.6-8.3-2.6-12.8c0-5.2,1-10.4,3.2-15.4c2.1-5,5.2-9.5,9.5-13.4
		c4.2-3.9,9.4-7,15.5-9.5c6.1-2.4,13.3-3.6,21.6-3.6c10.4,0,20.1,1.8,29.2,5.4c9.1,3.6,17.4,8,24.8,13.3l0.5,1.1l-10.1,33.8l-2,0.2
		c-4.2-7.3-8-13.8-11.2-19.2c-3.3-5.5-6.6-10-10-13.7c-3.4-3.7-7-6.4-10.8-8.1c-3.8-1.7-8.4-2.6-13.6-2.6c-7.5,0-13.5,2-18,6.1
		s-6.8,9.1-6.8,15.1c0,2.9,0.6,5.6,1.9,8.2c1.3,2.6,3.4,5.4,6.3,8.3c2.9,2.9,6.8,6,11.7,9.3c4.9,3.3,10.8,7,17.9,11
		c9,4.9,16.6,9.6,22.7,13.9c6.1,4.4,11.2,8.7,15.1,12.9c3.9,4.3,6.7,8.6,8.4,13.1c1.7,4.4,2.6,9.1,2.6,14.1c0,5.1-1.1,10.2-3.1,15.3
		c-2.1,5.1-5.3,9.8-9.5,14c-4.2,4.2-9.5,7.6-15.9,10.2C841,214.5,833.4,215.8,824.7,215.8z M824.7,213.6c8.4,0,15.6-1.2,21.7-3.7
		c6.1-2.5,11.1-5.7,15.2-9.7c4-4,7-8.4,9-13.3c1.9-4.9,2.9-9.7,2.9-14.5c0-4.6-0.8-9.1-2.5-13.3c-1.7-4.2-4.3-8.3-8-12.4
		c-3.7-4-8.6-8.2-14.6-12.6c-6.1-4.3-13.5-9-22.4-14c-7.2-3.9-13.3-7.5-18.2-10.9c-4.9-3.4-9-6.6-12-9.7c-3.1-3.1-5.3-6.1-6.8-9
		c-1.4-2.9-2.1-6-2.1-9.1c0-6.8,2.5-12.3,7.4-16.8c5-4.4,11.5-6.6,19.6-6.6c5.4,0,10.1,0.9,14.2,2.7c4.1,1.8,7.8,4.5,11.2,8
		c3.4,3.5,6.8,8,10,13.3c3.2,5.3,6.9,11.5,10.9,18.6l9-30.4c-6.9-5-14.8-9.1-23.7-12.6c-8.9-3.4-18.3-5.2-28.2-5.2
		c-8,0-14.9,1.2-20.8,3.5c-5.9,2.3-10.9,5.3-14.9,9c-4,3.7-6.9,7.9-8.9,12.6c-2,4.7-2.9,9.6-2.9,14.5c0,4.2,0.8,8.2,2.4,11.9
		c1.6,3.8,4.2,7.6,7.8,11.5c3.6,3.9,8.4,7.9,14.3,12c5.9,4.1,13.2,8.7,21.9,13.6c7.3,4,13.5,7.8,18.6,11.2c5,3.5,9.1,6.8,12.3,10.1
		c3.2,3.3,5.4,6.6,6.9,10c1.4,3.4,2.1,6.9,2.1,10.7c0,7.6-2.4,13.7-7.1,18.2s-11.3,6.8-19.7,6.8c-4.7,0-9-0.8-13-2.5
		c-4-1.6-8-4.4-11.9-8.2c-3.9-3.8-7.8-9-11.7-15.4c-3.9-6.4-8.1-14.4-12.6-23.9l-16.4,30.2c7.5,7.4,16.6,13.4,27.3,18.1
		C801.6,211.2,812.9,213.6,824.7,213.6z"/>
</g>
</svg>
