<svg width="400px" height="60px" xmlns="http://www.w3.org/2000/svg" viewBox="0 0 195.89 38"><g id="Layer_2" data-name="Layer 2"><g id="Layer_1-2" data-name="Layer 1"><path d="M39.48.77l.16.46L33.5,5V37.84l-.45.16L8.75,9.77V32.93l5.82,3.77-.16.46H.41L.25,36.7l5.52-3.77V6.8L0,1.25.16.8H8.43l.21.11L30.52,26.25V5l-6-3.77L24.66.8H39.48ZM30.93,4.66l.12.2V26.91l-.46.16L8.34,1.3H.77L6.2,6.52l.12.21V33.11l-.12.21L1.25,36.68H13.57L8.34,33.3l-.11-.21v-24L8.68,9,33,37.18V4.86l.11-.2,5.48-3.39h-13Z"/><path d="M47.09,33.7V4.25L42,1.25,42.18.8H57.73l.16.45-5.07,3V33.73l5.07,3-.16.45H42.18L42,36.75Zm9.71,3-4.39-2.61-.11-.21V4.09l.11-.2L56.8,1.27H43.09L47.5,3.89l.09.2V33.86l-.09.21-4.41,2.61Z"/><path d="M74.89,37.8a14.24,14.24,0,0,1-11.28-5.21,17.12,17.12,0,0,1-3.09-5.7,23.2,23.2,0,0,1-1.07-7.12,21.42,21.42,0,0,1,1.35-7.72,19,19,0,0,1,3.7-6.21,17,17,0,0,1,5.75-4.16A17.74,17.74,0,0,1,77.59.18,21.34,21.34,0,0,1,90.8,4.77l.09.32-3.73,8.68h-.5L83.48,4.68a12.17,12.17,0,0,0-3.21-1.41,13.45,13.45,0,0,0-3.41-.43,10.58,10.58,0,0,0-4.72,1.07,11.21,11.21,0,0,0-3.78,3,14.6,14.6,0,0,0-2.52,4.73,20.07,20.07,0,0,0-.91,6.27,19.77,19.77,0,0,0,.84,6,14,14,0,0,0,2.46,4.69,11.08,11.08,0,0,0,3.93,3,12.4,12.4,0,0,0,5.25,1.07,17.74,17.74,0,0,0,4-.45,19.65,19.65,0,0,0,3.75-1.39V24.2l-6.91-5,.16-.45H90.18l.25.25V37.45l-.41.21-4.54-4.34a11,11,0,0,1-4.34,3.34A15.82,15.82,0,0,1,74.89,37.8Zm0-.5a14.34,14.34,0,0,0,6.16-1.19A10.79,10.79,0,0,0,85.2,32.8l.37,0,4.34,4.09V19.25H79.18l6.39,4.59.11.21v7l-.16.2a18,18,0,0,1-3.93,1.5,17.48,17.48,0,0,1-4.2.48,12.52,12.52,0,0,1-5.48-1.14,11.26,11.26,0,0,1-4.07-3.16,14.4,14.4,0,0,1-2.54-4.86,20.15,20.15,0,0,1-.89-6.18,20.37,20.37,0,0,1,1-6.39A15.24,15.24,0,0,1,68,6.59a12.09,12.09,0,0,1,4-3.18,11.18,11.18,0,0,1,5-1.14,13.36,13.36,0,0,1,3.54.48,12.71,12.71,0,0,1,3.41,1.5l.11.11,3,8.55,3.43-7.86A20.68,20.68,0,0,0,77.61.64a17.06,17.06,0,0,0-7.13,1.45,16.46,16.46,0,0,0-5.57,4.05,18.77,18.77,0,0,0-3.64,6.09A21.63,21.63,0,0,0,60,19.77a22,22,0,0,0,1,6.93,17.12,17.12,0,0,0,3,5.55,13.76,13.76,0,0,0,4.71,3.68A13.55,13.55,0,0,0,74.89,37.3Z"/><path d="M111.75,37.8a14.31,14.31,0,0,1-6.41-1.39,14.11,14.11,0,0,1-4.86-3.82,16.94,16.94,0,0,1-3.09-5.7,22.9,22.9,0,0,1-1.07-7.12,21.42,21.42,0,0,1,1.34-7.72,19.6,19.6,0,0,1,3.73-6.25,16.86,16.86,0,0,1,5.75-4.16,17.71,17.71,0,0,1,7.34-1.5,21.25,21.25,0,0,1,13.2,4.59l.09.32-3.72,8.68h-.5l-3.19-9.09a11.5,11.5,0,0,0-3.2-1.41,13,13,0,0,0-3.41-.43A10.78,10.78,0,0,0,109,3.86a11.3,11.3,0,0,0-3.77,3,14.26,14.26,0,0,0-2.52,4.72,19.89,19.89,0,0,0-.91,6.28,19.86,19.86,0,0,0,.84,6,14.08,14.08,0,0,0,2.45,4.68,11,11,0,0,0,3.94,3.05,12.56,12.56,0,0,0,5.25,1.06,17.19,17.19,0,0,0,4-.45,19,19,0,0,0,3.75-1.39V24.2l-6.91-5,.16-.45h11.77l.25.25V37.45l-.41.21-4.54-4.34a11,11,0,0,1-4.34,3.34A15.93,15.93,0,0,1,111.75,37.8Zm0-.5a14.31,14.31,0,0,0,6.16-1.19,10.82,10.82,0,0,0,4.16-3.31l.36,0,4.34,4.09V19.25H116.05l6.38,4.59.12.21v7l-.16.2a18,18,0,0,1-3.94,1.5,17.48,17.48,0,0,1-4.2.48,12.55,12.55,0,0,1-5.48-1.14,11.35,11.35,0,0,1-4.07-3.16,14.4,14.4,0,0,1-2.54-4.86,20.46,20.46,0,0,1-.89-6.18,20.08,20.08,0,0,1,1-6.39,15.22,15.22,0,0,1,2.61-4.91,12,12,0,0,1,4-3.18,11.14,11.14,0,0,1,5-1.14,13.44,13.44,0,0,1,3.55.48,12.65,12.65,0,0,1,3.4,1.5l.1.11,3,8.55,3.43-7.86A20.63,20.63,0,0,0,114.48.64a17.1,17.1,0,0,0-7.14,1.45,16.56,16.56,0,0,0-5.57,4.05,18.75,18.75,0,0,0-3.63,6.09,21.41,21.41,0,0,0-1.3,7.54,21.75,21.75,0,0,0,1,6.93,16.75,16.75,0,0,0,3,5.55,13.9,13.9,0,0,0,10.86,5Z"/><path d="M157.61,33.82l-2.75-6.91H141L138.3,33.5l5.43,3.23-.16.45h-14l-.16-.45,5.41-3.23L149.5,0h.5l14.07,33.75,5.41,3-.12.46h-17l-.12-.46Zm10.75,2.86-4.59-2.5-.16-.09L149.75.8l-14.48,33-.11.11-4.71,2.82h12.16l-4.79-2.86-.12-.32,2.82-6.95.25-.16H155l.25.16,2.91,7.27-.16.29-4.59,2.55h15Zm-27-12.27,6.23-15.59h.5l6.25,15.59-.25.36H141.66Zm12.39-.16L147.91,9.57,142,24.25Z"/><path d="M184.2,37.8a19.47,19.47,0,0,1-8-1.66,21.15,21.15,0,0,1-6.4-4.32v-.3l4-7.47h.46a48,48,0,0,0,2.88,5.56,20.07,20.07,0,0,0,2.64,3.53A7.56,7.56,0,0,0,182.41,35a7.45,7.45,0,0,0,2.84.55,5.71,5.71,0,0,0,4.14-1.39,5,5,0,0,0,1.43-3.77,5.79,5.79,0,0,0-.43-2.23,6.93,6.93,0,0,0-1.46-2.11,17.9,17.9,0,0,0-2.7-2.25c-1.14-.78-2.5-1.64-4.14-2.55A47.85,47.85,0,0,1,177,18.16a22.77,22.77,0,0,1-3.32-2.82,9.4,9.4,0,0,1-1.86-2.73,7.38,7.38,0,0,1-.59-2.91A8.65,8.65,0,0,1,172,6.2a8.46,8.46,0,0,1,2.16-3A11.38,11.38,0,0,1,177.66,1a13.29,13.29,0,0,1,4.91-.82,17.76,17.76,0,0,1,6.63,1.23,26.37,26.37,0,0,1,5.64,3l.11.25-2.29,7.68-.46.05c-.95-1.66-1.81-3.14-2.54-4.36a19.25,19.25,0,0,0-2.27-3.12,7.65,7.65,0,0,0-2.46-1.84,7.5,7.5,0,0,0-3.09-.59,5.8,5.8,0,0,0-4.09,1.39,4.46,4.46,0,0,0-1.55,3.43,4,4,0,0,0,.44,1.86,7.4,7.4,0,0,0,1.43,1.89,17.73,17.73,0,0,0,2.66,2.11c1.11.75,2.45,1.59,4.07,2.5A53.59,53.59,0,0,1,190,18.84a23.73,23.73,0,0,1,3.44,2.93,9.68,9.68,0,0,1,1.91,3,9,9,0,0,1,.59,3.2,9.41,9.41,0,0,1-.71,3.48A9.66,9.66,0,0,1,193,34.61a10.65,10.65,0,0,1-3.61,2.32A14.58,14.58,0,0,1,184.2,37.8Zm0-.5a13,13,0,0,0,4.94-.85,10.48,10.48,0,0,0,3.45-2.2,9.25,9.25,0,0,0,2-3,9.15,9.15,0,0,0,.66-3.3,8.14,8.14,0,0,0-.57-3,9.57,9.57,0,0,0-1.82-2.82,23.51,23.51,0,0,0-3.32-2.86,57.82,57.82,0,0,0-5.09-3.18,47,47,0,0,1-4.14-2.48,18.16,18.16,0,0,1-2.72-2.21,8.1,8.1,0,0,1-1.55-2,4.75,4.75,0,0,1-.48-2.07,4.93,4.93,0,0,1,1.69-3.82,6.46,6.46,0,0,1,4.45-1.5,7.52,7.52,0,0,1,5.77,2.43,16.73,16.73,0,0,1,2.28,3c.72,1.2,1.56,2.61,2.47,4.22l2-6.91a24.77,24.77,0,0,0-5.39-2.86A17.87,17.87,0,0,0,182.52.66a13,13,0,0,0-4.72.79,10.69,10.69,0,0,0-3.39,2.05,8.22,8.22,0,0,0-2,2.86,8.31,8.31,0,0,0-.66,3.3,6.82,6.82,0,0,0,.54,2.7A9.29,9.29,0,0,0,174.05,15a19.36,19.36,0,0,0,3.25,2.72c1.34.94,3,2,5,3.1,1.66.9,3.07,1.77,4.23,2.54a19.69,19.69,0,0,1,2.8,2.3,7.83,7.83,0,0,1,1.56,2.27,6.23,6.23,0,0,1,.48,2.43,5.48,5.48,0,0,1-1.61,4.14A6.25,6.25,0,0,1,185.25,36a7.32,7.32,0,0,1-2.95-.57,8.55,8.55,0,0,1-2.71-1.86,17.69,17.69,0,0,1-2.66-3.5,60.25,60.25,0,0,1-2.86-5.43l-3.73,6.86a20.46,20.46,0,0,0,6.21,4.12A18.07,18.07,0,0,0,184.2,37.3Z"/></g></g></svg>